<?xml version="1.0" standalone="no"?>
<!DOCTYPE svg PUBLIC "-//W3C//DTD SVG 20010904//EN"
 "http://www.w3.org/TR/2001/REC-SVG-20010904/DTD/svg10.dtd">
<svg version="1.0" xmlns="http://www.w3.org/2000/svg"
 width="300.000000pt" height="300.000000pt" viewBox="0 0 300.000000 300.000000"
 preserveAspectRatio="xMidYMid meet">
<metadata>
Created by potrace 1.10, written by Peter Selinger 2001-2011
</metadata>
<g transform="translate(0.000000,300.000000) scale(0.100000,-0.100000)"
fill="#000000" stroke="none">
<path d="M1099 2404 c-7 -9 -14 -41 -16 -72 -2 -48 -10 -68 -64 -155 -65 -107
-68 -121 -50 -216 11 -54 11 -55 -19 -84 -39 -38 -44 -61 -36 -162 l7 -83 -58
-6 c-32 -3 -67 -5 -78 -5 -11 0 -28 0 -37 0 -51 -4 -75 -3 -95 2 -17 4 -29 -2
-49 -26 -26 -31 -26 -32 -22 -169 4 -136 5 -138 33 -168 37 -38 86 -48 132
-26 26 12 39 14 54 5 11 -6 41 -12 67 -13 l47 -3 1 -109 c2 -134 1 -130 17
-146 30 -31 47 -65 47 -95 0 -51 47 -82 78 -51 20 20 15 116 -8 146 -16 19
-18 27 -8 33 17 11 28 1 28 -25 0 -13 9 -35 20 -49 12 -14 20 -40 20 -61 0
-34 31 -82 48 -73 4 2 24 11 45 21 38 17 38 17 58 -8 11 -14 26 -26 33 -26 24
0 46 36 46 74 0 20 7 51 16 69 14 26 16 51 10 162 -6 112 -5 134 8 145 9 7 23
9 33 5 32 -14 46 -14 66 0 15 11 23 11 45 -1 35 -18 93 -18 117 0 17 12 23 12
47 0 37 -19 97 -18 140 5 36 18 37 18 68 -2 38 -24 101 -19 134 12 28 26 38
26 61 1 21 -24 67 -26 85 -5 17 20 25 19 60 -6 28 -21 30 -21 54 -5 24 15 29
15 56 1 37 -19 73 -19 111 1 28 14 34 14 64 0 54 -26 97 -21 132 16 44 47 50
96 19 157 -24 49 -24 50 -5 67 31 28 25 80 -15 120 -39 39 -75 44 -129 18 -31
-15 -36 -15 -65 0 -40 20 -76 20 -108 0 -19 -13 -30 -15 -47 -6 -31 15 -184
23 -232 12 -26 -6 -53 -5 -83 3 -39 10 -47 9 -87 -12 -42 -22 -44 -22 -70 -5
-32 21 -127 23 -149 5 -11 -10 -21 -9 -45 3 -41 21 -79 20 -119 -4 -29 -18
-35 -19 -55 -6 -19 13 -56 23 -95 25 -10 1 -11 14 -6 59 4 31 7 81 7 111 -1
51 -3 57 -42 92 l-41 38 11 77 c11 70 10 81 -7 113 -10 20 -21 38 -24 41 -3 3
-24 28 -47 57 -41 49 -43 55 -43 117 0 54 -3 67 -19 76 -27 14 -36 13 -52 -6z
m44 -76 c-5 -55 -13 -76 -69 -166 -61 -98 -76 -143 -54 -157 6 -3 10 -26 10
-51 0 -32 -4 -44 -15 -44 -11 0 -15 12 -15 44 0 25 -4 48 -10 51 -22 14 -7 56
61 165 70 113 71 116 65 168 -6 47 -4 52 13 52 17 0 19 -6 14 -62z m73 -163
c52 -69 56 -78 50 -112 -4 -21 -10 -62 -13 -91 -2 -28 -9 -50 -14 -46 -12 7
-11 111 1 119 21 13 9 48 -36 106 -25 32 -47 59 -49 59 -2 0 -23 -31 -45 -69
-40 -67 -41 -72 -35 -126 5 -38 11 -53 18 -46 6 6 47 -9 123 -47 l114 -57 0
-60 c0 -33 -7 -94 -17 -136 -17 -82 -18 -66 19 -546 11 -151 11 -163 -6 -182
-12 -14 -17 -32 -15 -63 3 -52 -7 -74 -25 -58 -19 15 -8 110 15 136 11 11 19
32 19 47 0 23 -3 27 -22 22 -23 -6 -23 -5 -25 127 -1 73 -5 166 -8 206 l-7 72
-34 0 c-23 0 -44 9 -69 31 l-35 31 0 -253 0 -253 24 -25 c32 -34 41 -124 14
-129 -15 -3 -18 4 -18 51 0 41 -5 58 -20 72 -19 17 -20 31 -20 301 0 160 4
285 9 288 5 4 19 -10 31 -29 27 -44 72 -68 110 -60 l28 6 6 -108 c4 -59 11
-155 16 -213 8 -96 8 -91 3 50 -2 85 -9 193 -14 240 -5 47 -9 112 -10 145 -1
33 -3 52 -6 43 -6 -24 -22 -23 -49 3 -20 19 -50 24 -99 17 -19 -3 -20 3 -23
145 -2 96 1 147 8 147 6 0 10 -39 10 -104 0 -141 5 -164 36 -158 13 2 41 -5
62 -16 l39 -20 16 77 c10 42 17 84 17 94 0 10 -22 28 -60 47 l-60 30 0 -23 c0
-17 9 -26 33 -35 68 -24 72 -31 53 -95 -9 -31 -20 -57 -24 -57 -25 1 -88 31
-90 44 -4 20 24 21 44 1 25 -24 41 -17 49 21 3 20 5 37 3 39 -2 1 -22 12 -45
24 -41 20 -43 24 -43 66 0 25 3 45 8 45 4 0 40 -18 80 -39 39 -21 72 -35 72
-30 0 5 -45 32 -101 59 l-101 51 -55 -48 c-30 -26 -63 -54 -74 -62 -24 -17
-24 -55 -3 -153 18 -81 18 -110 4 -443 l-10 -229 34 -36 c28 -28 35 -44 38
-85 2 -42 0 -50 -16 -53 -16 -3 -17 1 -11 38 7 39 5 45 -32 84 l-40 41 8 135
c21 369 22 443 5 524 -9 43 -16 100 -16 126 0 47 2 49 64 101 68 57 67 54 44
131 -9 32 -8 42 11 79 28 53 89 149 96 149 2 0 30 -34 61 -75z m-18 -48 l31
-44 -20 -32 c-10 -17 -19 -45 -19 -61 0 -17 -4 -30 -10 -30 -16 0 -12 73 5 98
14 19 14 24 -1 47 -9 14 -20 25 -23 25 -14 0 -34 -49 -35 -87 -1 -53 -20 -58
-24 -6 -2 32 4 54 23 88 15 25 30 45 34 45 4 0 22 -19 39 -43z m-110 -277 c1
-28 -4 -45 -19 -59 -21 -19 -21 -20 -4 -93 12 -55 16 -114 15 -238 -4 -345 -7
-405 -22 -405 -7 0 -13 7 -13 15 0 8 4 134 8 280 7 241 6 272 -12 347 -17 73
-17 84 -4 95 18 15 33 50 26 61 -9 15 -63 -46 -63 -69 0 -13 9 -62 20 -110 11
-48 18 -101 15 -118 -2 -17 -7 -143 -10 -281 -4 -192 -8 -250 -17 -250 -7 0
-13 7 -13 15 0 8 4 141 9 295 6 239 5 289 -8 345 -26 109 -23 133 26 174 23
20 47 36 53 36 7 0 12 -17 13 -40z m133 -270 c22 -21 29 -37 27 -57 -5 -44
-34 -41 -85 11 -37 38 -43 49 -33 61 20 24 59 18 91 -15z m-546 -117 c0 -135
0 -138 23 -141 13 -2 22 2 23 10 0 7 0 70 -1 141 l-1 127 28 0 28 0 -3 -147
c-2 -119 -5 -150 -19 -165 -23 -25 -87 -24 -113 2 -18 18 -20 33 -20 165 l0
145 28 0 27 0 0 -137z m267 120 c23 -21 25 -105 3 -123 -12 -10 -13 -15 -4
-21 8 -5 12 -31 10 -76 -3 -82 -13 -93 -88 -93 l-53 0 0 165 0 165 57 0 c38 0
62 -5 75 -17z m498 -1 c29 -24 34 -102 8 -128 -16 -16 -16 -19 -1 -29 10 -8
17 -34 21 -83 l5 -72 -31 0 -31 0 -3 68 c-3 61 -5 67 -26 70 -23 4 -23 3 -16
-67 6 -67 5 -71 -13 -71 -18 0 -21 9 -27 98 -3 53 -9 127 -13 165 l-6 67 56 0
c38 0 62 -6 77 -18z m194 -4 c13 -17 16 -51 16 -149 0 -109 -2 -128 -18 -142
-31 -29 -74 -31 -105 -7 -27 21 -27 22 -27 152 0 154 6 168 76 168 33 0 46 -5
58 -22z m186 2 c24 -24 28 -101 5 -120 -12 -10 -11 -16 7 -40 16 -22 20 -38
15 -70 -8 -64 -29 -80 -101 -80 l-61 0 0 165 0 165 58 0 c44 0 62 -5 77 -20z
m190 0 c18 -18 20 -33 20 -143 0 -92 -4 -128 -15 -144 -32 -46 -113 -36 -135
17 -7 18 -11 69 -8 138 2 91 6 114 22 131 26 28 88 29 116 1z m200 -5 c0 -21
-5 -25 -31 -25 l-31 0 4 -140 3 -140 -27 0 -28 0 0 140 0 140 -25 0 c-20 0
-25 5 -25 25 0 25 1 25 80 25 79 0 80 0 80 -25z m80 -140 l0 -165 -30 0 -30 0
0 165 0 165 30 0 30 0 0 -165z m164 143 c9 -12 16 -39 16 -60 0 -34 -3 -38
-25 -38 -22 0 -25 4 -25 34 0 40 -14 53 -36 35 -12 -9 -14 -34 -12 -123 3
-103 4 -111 23 -111 16 0 21 8 25 39 4 32 9 40 28 41 20 2 22 -3 22 -46 0 -40
-4 -51 -27 -69 -33 -26 -79 -21 -105 11 -15 18 -18 42 -18 145 0 111 2 126 20
144 29 29 94 27 114 -2z m176 2 c11 -11 20 -33 20 -50 0 -25 -4 -30 -25 -30
-20 0 -25 5 -25 24 0 25 -15 37 -37 28 -27 -9 -12 -53 37 -107 41 -46 50 -62
50 -93 0 -47 -21 -79 -59 -87 -30 -6 -69 7 -83 29 -4 6 -8 26 -8 44 0 28 3 32
25 32 20 0 25 -5 25 -25 0 -29 28 -45 41 -24 17 27 8 49 -41 104 -43 48 -50
61 -50 97 0 25 7 49 17 60 23 25 87 24 113 -2z m-142 -149 c3 -10 0 -12 -12
-8 -10 4 -26 7 -37 7 -10 0 -19 4 -19 9 0 14 63 7 68 -8z m-1284 -25 l34 -14
6 -94 c14 -226 13 -268 -3 -268 -14 0 -16 24 -19 172 -2 95 -4 174 -5 175 -1
1 -13 4 -27 8 l-25 6 3 -193 c3 -172 5 -195 21 -213 12 -12 20 -39 23 -70 2
-42 0 -50 -15 -53 -16 -3 -18 1 -12 40 6 39 3 49 -19 75 l-26 31 0 206 c0 228
-3 220 64 192z m66 -431 c0 -20 -30 -47 -30 -27 0 4 -3 16 -6 27 -4 16 0 21
15 22 16 1 21 -4 21 -22z"/>
<path d="M866 1542 c-3 -3 -6 -23 -6 -44 0 -35 2 -39 23 -36 17 2 23 10 25 39
2 29 -1 37 -17 42 -11 2 -22 2 -25 -1z"/>
<path d="M860 1359 c0 -49 1 -50 28 -47 29 3 39 29 28 74 -5 17 -13 24 -31 24
-23 0 -25 -3 -25 -51z"/>
<path d="M1360 1495 c0 -41 2 -45 25 -45 23 0 25 4 25 45 0 41 -2 45 -25 45
-23 0 -25 -4 -25 -45z"/>
<path d="M1561 1541 c-8 -5 -11 -41 -9 -122 3 -106 4 -114 23 -114 19 0 20 8
23 116 2 92 0 118 -11 122 -8 3 -19 2 -26 -2z"/>
<path d="M1740 1496 c0 -32 4 -46 14 -46 41 0 49 82 9 88 -21 3 -23 -1 -23
-42z"/>
<path d="M1740 1361 c0 -48 2 -51 26 -51 24 0 25 2 22 48 -3 40 -6 47 -25 50
-21 3 -23 0 -23 -47z"/>
<path d="M1934 1537 c-2 -7 -3 -62 -2 -123 3 -101 4 -109 23 -109 19 0 20 8
23 109 2 71 -1 113 -9 122 -14 18 -28 18 -35 1z"/>
</g>
</svg>
