<?xml version="1.0" standalone="no"?>
<!DOCTYPE svg PUBLIC "-//W3C//DTD SVG 20010904//EN"
 "http://www.w3.org/TR/2001/REC-SVG-20010904/DTD/svg10.dtd">
<svg version="1.0" xmlns="http://www.w3.org/2000/svg"
 width="450.000000pt" height="450.000000pt" viewBox="0 0 450.000000 450.000000"
 preserveAspectRatio="xMidYMid meet">
<metadata>
Created by potrace 1.10, written by Peter Selinger 2001-2011
</metadata>
<g transform="translate(0.000000,450.000000) scale(0.050000,-0.050000)"
fill="#000000" stroke="none">
<path d="M3331 7318 c5 -8 -8 -21 -29 -28 -22 -6 -51 -38 -65 -70 -14 -31 -32
-53 -39 -49 -13 8 -45 -51 -38 -69 2 -4 -8 -14 -21 -23 -18 -11 -13 -25 18
-51 38 -33 39 -39 11 -70 -17 -19 -31 -62 -32 -97 -1 -34 -10 -67 -19 -73 -10
-6 -12 -19 -6 -30 6 -10 -2 -23 -18 -30 -33 -12 -93 -147 -93 -208 0 -22 -10
-40 -22 -40 -13 0 -18 18 -12 40 9 33 4 36 -28 19 -44 -24 -47 -42 -15 -74 18
-18 16 -27 -10 -36 -18 -8 -33 -30 -33 -50 0 -20 -14 -50 -31 -68 -18 -17 -26
-31 -20 -31 7 0 1 -20 -12 -45 -31 -56 -37 -192 -10 -245 29 -57 38 -270 12
-270 -12 0 -16 -8 -10 -18 6 -10 -3 -23 -19 -29 -18 -7 -25 -26 -18 -47 10
-30 8 -31 -9 -7 -11 17 -28 23 -37 14 -17 -17 -18 -24 -25 -98 -2 -25 -9 -34
-14 -20 -22 54 -42 21 -35 -55 5 -50 0 -80 -14 -80 -16 0 -17 -8 -3 -25 26
-32 42 -175 20 -175 -10 0 -10 -11 -2 -25 51 -81 27 -187 -35 -154 -24 13 -37
14 -31 3 18 -28 -41 -46 -99 -32 -29 8 -48 4 -48 -10 0 -12 -31 -22 -70 -22
-38 0 -70 9 -70 20 0 11 -18 20 -40 20 -22 0 -40 -9 -40 -20 0 -11 -26 -20
-58 -20 -32 0 -63 -11 -69 -25 -8 -20 -10 -20 -11 0 -1 14 -25 25 -53 25 -27
0 -55 13 -62 30 -13 34 -49 19 -139 -58 -32 -27 -80 -69 -108 -92 -27 -24 -36
-37 -20 -30 19 8 17 3 -5 -16 -20 -16 -31 -42 -24 -59 6 -16 -3 -45 -21 -62
-26 -26 -27 -33 -5 -33 22 0 28 -66 29 -349 1 -284 7 -363 35 -421 39 -82 185
-229 230 -232 17 0 45 -4 61 -8 130 -33 186 -35 169 -8 -14 24 -12 24 17 1 22
-18 34 -20 34 -5 0 12 17 22 38 22 21 0 44 11 50 25 9 19 15 19 23 1 7 -13 24
-19 39 -13 15 5 48 -2 73 -16 26 -15 61 -27 77 -28 17 0 28 -10 26 -21 -2 -11
19 -21 45 -24 27 -2 49 7 49 20 0 12 6 16 14 8 8 -7 16 -153 19 -323 l4 -308
71 -88 c40 -47 66 -93 58 -100 -7 -7 -2 -13 11 -13 12 0 23 -13 23 -30 0 -16
9 -30 20 -30 11 0 20 -41 20 -92 0 -97 104 -226 183 -228 19 0 50 -6 70 -13
21 -7 31 -7 24 1 -8 9 4 33 25 54 41 41 112 41 137 0 8 -14 21 -22 27 -19 18
10 93 -77 79 -91 -6 -7 4 -12 23 -12 19 0 29 9 22 20 -7 11 7 20 30 20 50 0
105 47 84 72 -8 9 1 6 18 -8 26 -20 38 -18 59 7 22 27 36 21 113 -55 92 -90
244 -130 215 -56 -19 49 -19 50 -9 52 37 6 99 53 90 68 -7 11 3 47 21 82 18
34 23 57 11 49 -42 -26 -8 141 47 227 44 70 49 91 28 104 -15 10 -18 18 -7 18
12 0 20 87 20 220 1 129 -7 220 -19 220 -10 0 -8 11 5 24 13 13 24 33 24 45 0
12 -10 8 -22 -9 -16 -23 -19 -18 -12 25 5 31 2 60 -6 65 -29 18 11 140 48 147
24 4 32 -1 22 -17 -18 -30 133 -21 154 9 18 26 174 26 192 1 14 -20 21 -22
131 -44 47 -10 56 -7 42 16 -14 23 -11 23 14 3 23 -18 35 -19 53 -1 13 13 24
17 24 9 0 -9 27 4 61 28 39 28 69 36 85 24 91 -68 470 -72 514 -6 22 34 97 42
125 13 16 -16 46 -32 67 -35 21 -4 44 -15 51 -24 7 -10 36 -18 64 -18 29 0 48
-6 44 -14 -5 -8 18 -10 50 -5 32 5 55 15 50 23 -5 7 24 26 65 40 41 15 80 36
88 48 7 11 36 24 65 27 46 7 60 -9 54 -57 -1 -7 15 -9 35 -3 20 5 50 -5 67
-21 31 -31 115 -37 115 -9 0 9 13 16 28 16 16 0 32 10 36 21 11 34 115 37 147
5 16 -16 38 -23 49 -16 11 7 20 -1 20 -17 0 -23 14 -25 75 -9 153 40 185 41
235 8 28 -18 50 -26 50 -17 0 8 9 2 20 -15 17 -25 23 -26 38 -2 10 15 28 21
43 12 33 -21 142 -17 157 5 34 51 146 65 201 26 80 -57 214 -84 243 -49 13 16
35 28 50 28 37 0 169 92 154 108 -7 6 2 12 21 12 18 0 33 7 33 15 0 8 22 40
49 71 46 55 74 374 31 374 -19 0 -80 136 -80 181 0 21 9 39 20 39 11 0 20 14
20 31 0 17 7 27 16 22 8 -6 17 7 19 28 2 22 5 55 7 74 2 19 13 48 26 64 17 22
16 25 -3 14 -17 -10 -25 -2 -25 23 0 22 -13 50 -30 64 -16 13 -25 33 -19 42 6
10 -11 27 -38 37 -27 10 -55 37 -63 60 -7 22 -25 41 -39 41 -15 0 -32 13 -38
30 -7 17 -25 24 -42 18 -17 -7 -31 -2 -31 10 0 31 -194 29 -208 -3 -9 -20 -15
-20 -23 -1 -8 17 -28 9 -62 -25 -65 -66 -194 -31 -152 40 7 12 -1 10 -19 -4
-25 -21 -35 -20 -56 5 -14 17 -35 24 -48 14 -12 -8 -51 -14 -87 -12 -36 3 -70
-4 -76 -14 -6 -10 -33 -18 -60 -18 -27 0 -49 -8 -49 -17 0 -10 -23 -18 -50
-18 -28 0 -56 8 -62 18 -5 9 -28 17 -50 17 -26 0 -35 9 -26 23 10 16 5 18 -14
6 -39 -25 -218 -34 -218 -12 0 10 -27 22 -60 27 -33 5 -60 2 -60 -6 0 -8 -18
-10 -40 -4 -22 6 -55 -2 -74 -17 -23 -18 -29 -19 -19 -2 11 17 0 25 -36 25
-28 0 -51 -9 -51 -19 0 -10 -58 -18 -130 -17 -91 2 -130 10 -130 28 0 14 -10
32 -23 40 -14 9 -18 5 -9 -9 10 -16 -15 -23 -87 -23 -55 0 -101 -9 -101 -20 0
-11 -18 -20 -40 -20 -22 0 -40 -8 -40 -19 0 -33 -79 -44 -150 -21 -39 13 -70
30 -70 39 0 8 -22 11 -50 6 -27 -5 -50 -1 -50 10 0 26 -181 25 -230 -2 -22
-12 -46 -22 -53 -22 -8 -1 -20 -8 -29 -16 -24 -24 -89 -17 -119 13 -16 16 -47
24 -72 17 -24 -6 -38 -3 -32 7 6 10 -33 21 -87 24 -54 3 -98 -2 -98 -13 0 -10
-16 -23 -35 -28 -19 -6 -67 -25 -107 -42 -68 -29 -75 -29 -115 8 -23 22 -64
41 -92 44 -28 2 -51 11 -51 19 0 9 -14 16 -32 16 -20 0 -28 11 -21 29 6 15 -2
39 -18 52 -22 18 -24 31 -8 50 42 50 19 504 -26 516 -21 6 -43 29 -49 52 -6
22 -23 41 -38 41 -14 0 -37 19 -49 42 -29 55 -43 278 -16 278 11 0 14 17 8 38
-7 21 -4 44 6 50 11 7 12 42 2 86 -9 40 -12 81 -7 90 6 9 0 16 -13 16 -13 0
-18 14 -11 31 6 17 3 26 -8 19 -10 -6 -25 11 -32 39 -7 28 -22 51 -34 51 -11
0 -15 6 -8 13 7 7 -6 30 -29 50 -24 20 -36 37 -27 37 9 0 -3 17 -27 37 -23 20
-36 43 -29 50 7 7 -3 13 -22 13 -19 0 -30 7 -24 16 5 9 -14 42 -43 74 -29 31
-55 76 -58 98 -13 114 -13 207 2 250 10 32 8 43 -7 33 -30 -18 -28 15 3 48 20
21 20 24 0 13 -15 -9 -30 -1 -37 17 -7 17 -20 26 -28 21 -9 -6 -35 13 -57 41
-22 28 -45 51 -52 50 -6 -1 -13 0 -16 1 -32 10 -91 8 -84 -4z m92 -336 l-8
-188 -188 -302 c-213 -342 -227 -376 -180 -457 59 -103 33 -391 -27 -295 -8
14 -13 67 -10 117 3 55 -6 109 -22 132 -69 98 -39 190 164 514 l191 307 -9
174 c-9 176 -1 198 66 189 25 -3 29 -36 23 -191z m225 -489 c183 -243 212
-328 141 -422 -19 -25 -29 -86 -29 -174 0 -133 -27 -190 -62 -135 -29 47 -20
284 13 327 59 79 37 155 -102 338 -71 95 -137 173 -145 173 -48 0 -268 -426
-255 -497 7 -40 18 -111 24 -158 11 -88 23 -101 61 -63 17 17 82 -8 249 -94
125 -64 279 -142 342 -174 l115 -59 0 -163 c0 -107 -18 -233 -52 -372 -55
-225 -57 -465 -6 -1020 93 -1029 96 -1156 26 -1222 -48 -45 -51 -58 -45 -198
7 -148 6 -150 -43 -150 -79 0 -64 310 20 400 l56 60 -27 450 c-15 248 -38 599
-51 780 -13 182 -30 425 -36 540 -9 149 -16 194 -27 155 -20 -71 -37 -69 -128
10 -69 61 -83 65 -218 64 l-145 -1 -12 89 c-27 199 -14 783 18 783 24 0 30
-29 30 -145 0 -80 6 -260 13 -400 l13 -254 47 12 c71 17 174 -8 256 -63 51
-35 75 -42 81 -25 31 85 90 390 90 461 l0 85 -168 83 c-183 91 -189 92 -176
11 7 -46 32 -66 146 -119 157 -73 156 -72 99 -274 -50 -173 -42 -167 -166
-118 -58 23 -121 47 -141 54 -44 14 -38 79 9 88 18 3 66 -17 107 -45 42 -28
82 -51 89 -51 13 0 84 224 75 233 -2 2 -67 34 -144 71 l-140 67 -6 115 c-8
158 13 160 276 27 191 -97 277 -123 195 -58 -50 39 -580 307 -596 301 -9 -3
-111 -90 -228 -193 l-211 -186 0 -95 c0 -53 23 -212 52 -353 52 -257 52 -260
31 -708 -12 -248 -28 -635 -35 -861 l-12 -410 99 -107 c141 -153 175 -473 43
-402 -29 15 -32 38 -23 140 l11 122 -107 108 -107 108 25 445 c75 1378 73
1259 15 1531 -28 135 -52 308 -52 384 l0 139 201 174 c111 96 193 180 183 186
-19 12 -36 95 -55 272 -11 97 251 610 311 610 9 0 94 -102 188 -227z m-74
-118 c115 -154 114 -148 58 -244 -35 -59 -52 -118 -52 -176 0 -100 -14 -125
-53 -92 -45 37 -32 175 24 271 l51 87 -59 82 -60 81 -51 -80 c-37 -59 -52
-113 -56 -207 -8 -174 -63 -184 -72 -13 -6 117 9 162 109 321 61 96 67 95 161
-30z m-314 -864 c0 -118 -5 -132 -59 -175 l-59 -46 56 -255 c56 -255 56 -255
39 -730 -9 -261 -15 -628 -14 -815 l4 -340 -48 0 c-40 0 -48 9 -44 50 3 28 15
394 28 814 l22 764 -53 236 c-65 296 -65 309 8 363 43 32 60 61 60 104 0 75
-7 74 -113 -12 -106 -88 -108 -111 -34 -454 l53 -245 -23 -810 c-12 -445 -20
-832 -17 -860 3 -37 -7 -52 -38 -56 -54 -8 -70 34 -49 120 9 36 27 413 40 836
l24 770 -52 224 c-28 123 -51 272 -51 331 l0 108 125 102 c173 141 195 139
195 -24z m-1235 -1156 l5 -425 46 -7 c100 -14 106 11 103 445 l-2 402 71 6 72
6 0 -422 c0 -536 -18 -580 -230 -580 -210 0 -230 51 -230 589 l0 411 80 0 79
0 6 -425z m807 359 c65 -76 69 -281 8 -359 -35 -45 -36 -52 -8 -63 28 -11 31
-44 25 -222 -10 -270 -17 -278 -253 -287 l-174 -7 0 504 0 504 177 -7 c165 -7
180 -11 225 -63z m1997 46 c187 -71 196 -882 11 -974 -238 -119 -346 12 -356
434 -13 496 80 641 345 540z m1150 -10 c102 -52 126 -158 118 -524 -8 -366
-23 -408 -158 -449 -117 -35 -216 -5 -275 83 -66 98 -61 766 6 840 74 83 206
104 309 50z m1364 -27 c56 -50 65 -73 73 -180 l9 -123 -82 0 -81 0 -6 105 c-5
82 -14 106 -42 111 -84 16 -94 -23 -94 -366 0 -348 11 -388 99 -360 42 13 44
20 48 160 3 77 5 80 78 86 l75 6 0 -106 c0 -260 -232 -393 -397 -228 l-53 53
0 391 0 391 65 59 c92 81 218 82 308 1z m485 38 c64 -25 105 -89 122 -196 l14
-85 -82 0 c-76 0 -82 4 -82 56 0 101 -97 144 -141 62 -36 -67 -5 -133 130
-277 261 -278 201 -590 -107 -555 -189 21 -293 314 -111 314 65 0 69 -4 69
-68 0 -78 41 -121 99 -102 107 34 65 173 -104 345 -264 268 -127 628 193 506z
m-3498 -46 c89 -76 94 -311 8 -397 -40 -40 -40 -40 6 -77 40 -33 46 -59 56
-249 l10 -212 -85 0 -85 0 0 186 c0 201 -14 234 -99 234 l-51 0 7 -210 7 -210
-51 0 c-46 0 -51 9 -61 105 -20 182 -52 663 -52 771 l0 104 169 0 c146 0 176
-6 221 -45z m1097 23 c100 -46 132 -284 51 -386 l-41 -53 45 -37 c37 -30 47
-61 54 -170 16 -247 -49 -312 -315 -312 l-161 0 0 490 0 490 159 0 c88 0 181
-10 208 -22z m1193 -48 c0 -68 -2 -70 -80 -70 l-80 0 0 -420 0 -420 -80 0 -80
0 0 420 0 420 -80 0 c-78 0 -80 2 -80 70 l0 70 240 0 240 0 0 -70z m240 -420
l0 -490 -80 0 -80 0 0 490 0 490 80 0 80 0 0 -490z m-3240 338 c0 -27 -9 -48
-20 -48 -11 0 -20 7 -20 16 0 9 -18 36 -41 60 -54 58 -32 93 32 51 29 -19 49
-51 49 -79z m-204 -89 c64 -112 196 -205 274 -192 33 5 78 13 100 16 36 6 41
-8 53 -143 11 -125 56 -904 65 -1110 2 -47 -6 -60 -38 -60 -32 0 -39 12 -37
60 4 86 -32 940 -45 1065 l-11 105 -94 0 c-101 0 -223 65 -263 140 -50 94 -57
7 -54 -719 l4 -759 63 -66 c84 -88 110 -381 35 -392 -51 -7 -76 43 -48 96 44
83 24 188 -50 260 l-70 68 0 856 c0 942 4 971 116 775z m168 -320 c150 -59
142 -33 159 -554 9 -261 19 -497 22 -525 4 -41 -4 -50 -45 -50 -47 0 -50 5
-43 90 4 50 1 280 -7 513 l-14 423 -78 30 -78 31 0 -585 0 -585 60 -57 c51
-48 60 -73 60 -155 0 -54 10 -116 22 -139 27 -50 -17 -105 -68 -85 -27 11 -30
33 -20 140 11 126 10 129 -61 208 l-73 81 0 617 c0 718 -13 671 164 602z"/>
<path d="M2580 4500 c0 -153 22 -174 116 -109 60 42 64 197 5 228 -99 53 -121
32 -121 -119z"/>
<path d="M2580 4080 l0 -160 55 0 c84 1 108 27 120 127 13 120 -30 193 -115
193 l-60 0 0 -160z"/>
<path d="M4664 4616 c-40 -40 -33 -644 7 -685 101 -100 129 -26 129 339 0 329
-9 370 -80 370 -18 0 -43 -11 -56 -24z"/>
<path d="M5804 4616 c-34 -34 -34 -658 0 -692 97 -97 136 0 136 339 0 353 -38
451 -136 353z"/>
<path d="M4093 4485 c5 -198 147 -212 147 -14 0 124 -15 149 -87 149 l-63 0 3
-135z"/>
<path d="M5220 4490 c0 -136 32 -166 118 -111 76 47 28 241 -59 241 l-59 0 0
-130z"/>
<path d="M5220 4070 l0 -150 68 0 c79 0 92 23 92 158 0 108 -25 142 -104 142
l-56 0 0 -150z"/>
</g>
</svg>
