<?xml version="1.0" standalone="no"?>
<!DOCTYPE svg PUBLIC "-//W3C//DTD SVG 20010904//EN"
 "http://www.w3.org/TR/2001/REC-SVG-20010904/DTD/svg10.dtd">
<svg version="1.0" xmlns="http://www.w3.org/2000/svg"
 width="1350.000000pt" height="1350.000000pt" viewBox="0 0 1350.000000 1350.000000"
 preserveAspectRatio="xMidYMid meet">
<metadata>
Created by potrace 1.10, written by Peter Selinger 2001-2011
</metadata>
<g transform="translate(0.000000,1350.000000) scale(0.100000,-0.100000)"
fill="#000000" stroke="none">
<path d="M4983 10795 c-20 -25 -45 -45 -54 -45 -23 0 -46 -82 -31 -113 14 -29
26 -178 13 -157 -16 24 -25 3 -12 -28 16 -38 11 -190 -6 -197 -7 -2 -13 -15
-13 -28 0 -33 -38 -108 -58 -114 -19 -5 -62 -83 -62 -113 0 -11 -11 -27 -25
-36 -14 -9 -25 -25 -25 -36 0 -11 -11 -34 -24 -51 -13 -18 -34 -51 -46 -74
-13 -24 -30 -43 -38 -43 -9 0 -12 -6 -8 -16 7 -18 -28 -71 -81 -120 -20 -20
-33 -41 -33 -57 0 -14 -7 -27 -15 -31 -9 -3 -15 -18 -15 -36 0 -25 -4 -29 -22
-27 -18 2 -23 -4 -29 -36 -3 -21 -11 -43 -18 -50 -6 -6 -11 -18 -11 -27 0 -10
-8 -32 -17 -51 -27 -51 -27 -253 0 -291 10 -15 21 -45 24 -65 3 -21 11 -45 18
-53 22 -26 26 -82 10 -135 -14 -44 -14 -54 -1 -80 48 -99 61 -165 33 -165 -7
0 -28 -16 -47 -35 -19 -20 -45 -40 -57 -45 -12 -5 -48 -41 -80 -80 -31 -38
-64 -72 -73 -75 -19 -6 -45 -55 -59 -111 -12 -45 -7 -345 7 -466 5 -43 17 -89
27 -104 18 -27 26 -67 49 -239 10 -68 11 -104 4 -112 -19 -23 -73 -26 -114 -6
-35 17 -60 19 -221 17 -147 -2 -187 -5 -205 -18 -12 -9 -30 -16 -40 -16 -10 0
-18 -4 -18 -10 0 -5 -15 -16 -32 -24 -25 -10 -36 -11 -48 -2 -91 70 -203 86
-274 39 -23 -15 -55 -40 -72 -56 -40 -36 -61 -31 -125 28 -39 37 -55 44 -103
50 -79 10 -157 -1 -174 -26 -7 -10 -22 -19 -33 -19 -10 0 -19 -6 -19 -14 0 -8
-7 -16 -15 -20 -8 -3 -15 -16 -15 -29 0 -13 -6 -29 -12 -35 -10 -10 -14 -140
-15 -570 -3 -583 4 -700 41 -738 9 -8 16 -24 16 -34 0 -10 9 -20 20 -23 11 -3
20 -12 20 -21 0 -27 42 -76 88 -103 23 -14 42 -29 42 -34 0 -5 15 -9 33 -9 18
0 37 -4 43 -8 18 -16 92 -32 147 -32 126 0 247 42 324 112 29 26 57 48 62 48
5 0 23 -16 40 -35 17 -19 35 -35 40 -35 5 0 16 -9 24 -20 8 -11 28 -23 45 -26
18 -4 32 -13 32 -21 0 -9 6 -12 18 -9 34 10 289 15 321 6 19 -5 42 -5 55 0 13
5 42 6 65 3 l41 -6 -6 -206 c-5 -186 -16 -381 -30 -516 -3 -27 -6 -124 -7
-215 -2 -180 2 -197 53 -227 19 -11 30 -25 30 -40 0 -14 20 -40 60 -75 33 -28
66 -66 75 -84 8 -17 26 -39 41 -49 41 -27 72 -128 50 -164 -13 -21 -16 -134
-4 -149 6 -7 8 -29 4 -51 -6 -41 10 -71 39 -71 8 0 20 -9 28 -20 17 -24 58
-40 106 -40 46 0 94 34 134 97 27 40 28 48 22 116 -3 39 -8 119 -11 177 -3 58
-9 109 -15 114 -5 6 -9 22 -9 36 0 15 -9 35 -20 45 -11 10 -33 42 -50 71 -21
38 -41 59 -68 71 -58 28 -56 60 11 131 29 31 57 65 60 75 5 13 18 17 56 17 27
0 53 -5 56 -10 4 -6 15 -8 26 -5 21 7 19 18 25 -145 4 -115 34 -210 66 -210
10 0 18 -5 18 -11 0 -6 20 -35 45 -65 25 -32 47 -70 51 -91 4 -20 4 -98 1
-174 -8 -169 -2 -184 107 -272 28 -23 31 -23 80 -9 31 8 66 28 88 49 20 20 45
36 55 37 24 1 58 26 66 49 5 13 13 16 26 12 26 -8 74 23 66 43 -8 21 16 81 31
75 18 -7 29 54 13 74 -20 23 -38 82 -28 89 5 3 9 49 9 102 -1 71 -5 105 -18
129 -42 78 -83 141 -115 176 -19 20 -31 40 -26 43 5 3 9 12 9 21 0 11 -6 14
-25 9 -17 -4 -25 -2 -26 6 -4 49 -3 115 3 188 4 52 3 98 -3 117 -7 22 -7 38 1
52 10 20 12 47 8 136 -1 22 1 131 3 242 3 171 7 205 21 219 9 9 20 14 25 11 4
-3 8 -49 8 -104 0 -54 2 -199 6 -323 4 -124 4 -229 1 -234 -10 -17 -8 -169 3
-213 17 -68 122 -134 201 -125 36 4 51 0 83 -21 22 -15 51 -29 65 -33 32 -8
41 -21 27 -38 -7 -9 -7 -16 0 -23 13 -13 -5 -78 -24 -90 -15 -10 -69 -87 -91
-130 -12 -23 -16 -56 -14 -120 2 -131 -8 -284 -21 -318 -11 -27 -9 -34 27 -84
43 -62 78 -85 141 -96 36 -6 46 -4 62 14 11 12 24 21 28 21 23 0 84 119 82
160 -6 96 -10 146 -16 206 -7 65 -6 73 14 93 11 11 21 32 21 45 0 15 16 41 39
65 22 23 49 66 61 99 20 53 21 68 15 232 -3 96 -12 256 -20 355 -17 209 -25
344 -30 468 -2 49 -6 91 -9 95 -3 3 -6 36 -6 74 l0 68 40 25 c22 14 47 25 56
25 10 0 14 5 10 15 -3 10 1 18 12 22 9 3 29 20 43 37 l27 31 35 -37 c20 -21
43 -38 51 -38 9 0 16 -6 16 -14 0 -22 80 -46 152 -46 79 0 138 21 138 50 0 25
15 26 25 3 5 -15 9 -13 20 13 19 46 43 50 80 14 17 -16 36 -30 43 -30 7 0 12
-4 12 -10 0 -5 13 -10 28 -10 16 0 48 -10 73 -22 39 -20 59 -22 179 -22 109 1
141 4 161 17 14 10 28 15 31 12 2 -3 13 4 23 15 10 11 24 20 30 20 7 0 27 14
45 30 18 17 40 30 49 30 9 0 23 6 30 12 10 11 22 3 61 -39 27 -29 53 -53 58
-53 5 0 15 -7 23 -16 11 -14 42 -15 243 -12 197 4 236 7 265 22 21 11 44 16
62 12 16 -3 29 -1 29 4 0 6 -6 10 -12 10 -17 1 22 30 40 30 7 0 34 21 59 46
41 40 50 45 77 40 17 -4 47 -23 67 -44 73 -75 116 -102 183 -116 36 -8 70 -17
77 -22 20 -12 180 -5 223 10 21 7 43 21 48 30 9 16 11 16 29 0 18 -16 19 -15
28 8 8 20 15 25 35 21 21 -4 26 -1 26 15 0 11 20 42 44 68 54 61 99 148 91
175 -4 11 -1 27 7 36 8 10 13 44 14 88 1 39 6 81 13 92 14 28 16 663 1 663 -5
0 -10 9 -10 19 0 11 5 23 10 26 6 4 10 -5 10 -20 0 -17 5 -25 13 -22 6 2 11
14 10 26 -2 15 3 21 16 21 29 0 31 -40 34 -600 1 -365 5 -494 13 -493 7 1 18
-11 24 -28 7 -17 31 -49 52 -72 l39 -42 106 -1 105 0 27 33 c14 18 31 33 36
33 22 0 56 81 61 143 2 34 5 266 5 516 0 527 0 524 71 519 l43 -3 2 -140 c2
-77 4 -320 6 -540 3 -273 7 -409 15 -428 22 -52 95 -113 151 -127 28 -7 58 -9
67 -6 8 3 24 1 34 -4 13 -7 21 -7 25 0 3 5 17 10 29 10 15 0 40 18 72 53 77
83 78 83 121 48 21 -17 43 -31 50 -31 7 0 16 -6 20 -13 29 -46 153 -87 268
-88 108 0 185 22 240 69 21 17 44 32 51 32 7 0 17 6 21 13 9 15 76 57 90 57 5
0 27 -16 49 -35 21 -20 51 -39 67 -42 21 -4 26 -10 22 -24 -23 -72 377 -98
440 -29 9 10 36 22 58 25 43 7 117 65 117 92 0 7 9 21 20 30 11 10 20 24 20
31 0 8 6 26 14 40 33 63 39 109 33 249 -6 137 -30 242 -56 251 -6 2 -11 12
-11 22 0 26 -32 80 -48 80 -7 0 -16 11 -21 23 -5 13 -23 38 -40 55 -17 17 -31
35 -31 41 0 5 -13 18 -30 28 -39 22 -40 53 -3 53 25 0 63 15 152 58 18 10 37
26 43 37 5 11 18 35 28 53 15 27 17 47 13 115 -3 45 -12 94 -19 109 -8 15 -14
36 -14 48 0 26 -99 151 -135 170 -14 7 -25 17 -25 21 0 21 -87 51 -168 59
-138 14 -252 -4 -303 -47 -8 -7 -21 -13 -28 -13 -7 0 -44 -30 -83 -67 l-70
-68 -37 40 c-32 36 -91 81 -182 139 -46 29 -252 28 -335 -2 -58 -20 -148 -73
-156 -90 -2 -4 -17 -17 -34 -29 l-30 -22 -64 70 c-57 62 -67 69 -101 69 -21 0
-50 5 -64 12 -19 9 -28 9 -37 0 -7 -7 -29 -12 -50 -12 -25 0 -41 -5 -44 -15
-9 -21 -67 -19 -116 5 -29 14 -45 17 -59 10 -12 -7 -33 -7 -61 0 -24 5 -153
10 -288 10 -213 0 -249 -2 -269 -17 -19 -13 -28 -14 -42 -4 -17 10 -19 8 -19
-19 0 -23 -4 -30 -20 -30 -10 0 -23 -8 -29 -17 -8 -15 -12 -16 -22 -5 -7 6
-19 12 -27 12 -7 0 -33 15 -58 34 -60 46 -168 70 -273 62 -171 -14 -193 -17
-198 -34 -2 -10 -25 -33 -51 -52 -26 -19 -71 -59 -99 -88 l-52 -54 -65 66
c-35 36 -71 66 -80 66 -9 0 -19 7 -22 15 -4 8 -14 15 -25 15 -10 0 -27 10 -38
21 -19 21 -29 22 -258 23 -212 1 -242 -1 -265 -16 -15 -10 -34 -18 -43 -18 -8
0 -15 -4 -15 -10 0 -5 -18 -28 -40 -51 -32 -33 -45 -40 -64 -35 -14 3 -27 14
-31 25 -3 10 -27 29 -53 42 -26 13 -54 29 -62 35 -8 6 -51 21 -94 34 -64 18
-93 21 -150 17 -127 -11 -176 -26 -205 -61 -8 -9 -19 -16 -25 -16 -21 0 -98
-72 -127 -118 -24 -38 -28 -41 -34 -23 -3 12 -10 21 -15 21 -5 0 -29 18 -52
41 -60 57 -66 61 -130 93 -68 33 -150 45 -314 46 -113 0 -122 1 -143 24 -21
22 -21 26 -11 131 7 78 15 114 27 128 13 13 18 36 18 77 0 31 5 63 11 71 26
34 34 87 45 289 10 186 9 223 -4 266 -8 28 -13 61 -11 75 4 17 -5 35 -33 67
-21 23 -46 42 -54 42 -9 0 -45 23 -79 50 -59 47 -74 55 -125 62 -10 2 -26 17
-35 33 -8 16 -21 35 -29 41 -12 9 -13 24 -3 90 6 43 9 81 7 84 -3 5 -5 79 -6
187 0 18 11 49 24 70 12 21 28 51 35 67 18 40 33 224 22 266 -20 79 -44 127
-82 167 -22 22 -37 46 -34 52 11 16 -20 67 -56 92 -39 27 -57 49 -58 68 0 15
-32 56 -107 138 -29 31 -53 65 -53 75 0 10 -4 18 -9 18 -5 0 -19 16 -31 35
-13 21 -30 35 -41 35 -14 0 -19 6 -17 18 4 26 -10 42 -37 42 -13 0 -27 6 -32
13 -6 10 -17 133 -23 272 -1 11 2 35 6 53 3 18 2 38 -4 45 -8 9 -7 34 4 87 13
60 13 81 3 117 -6 24 -16 46 -21 49 -4 3 -6 10 -3 15 4 5 -2 12 -12 16 -10 3
-34 19 -53 35 -26 21 -45 28 -77 28 -38 0 -46 -5 -80 -45z m146 -64 c37 -34
40 -72 11 -116 -18 -27 -20 -47 -20 -228 l0 -199 -47 -71 c-25 -40 -58 -89
-72 -111 -14 -21 -30 -47 -36 -57 -10 -19 -147 -239 -177 -287 -10 -15 -21
-34 -25 -42 -3 -8 -25 -44 -48 -80 -23 -36 -66 -105 -96 -153 -30 -48 -62
-100 -71 -115 -11 -19 -17 -51 -17 -105 -1 -82 8 -111 57 -175 25 -32 25 -35
23 -210 -2 -190 -5 -202 -57 -202 -41 0 -46 20 -45 183 2 148 1 154 -24 191
-14 20 -25 39 -25 42 0 3 -9 17 -20 31 -17 22 -20 41 -20 130 l0 105 56 91
c78 130 76 127 107 170 15 22 27 44 27 48 0 5 13 28 29 51 25 36 61 94 128
203 7 11 44 72 83 135 39 63 93 151 120 195 l49 80 -2 171 c-3 155 -5 174 -25
208 -12 20 -22 43 -22 51 0 27 22 61 48 78 40 25 76 21 111 -12z m83 -513 c-9
-9 -12 -7 -12 12 0 19 3 21 12 12 9 -9 9 -15 0 -24z m154 -363 c260 -343 334
-443 343 -469 6 -16 7 -157 2 -223 -1 -6 -19 -34 -41 -62 l-40 -50 0 -207 c0
-179 -2 -210 -17 -226 -24 -26 -58 -23 -79 10 -17 24 -18 46 -15 232 1 118 7
213 13 225 6 11 24 35 39 53 28 31 29 37 29 136 0 103 0 105 -32 144 -50 60
-299 389 -336 444 -18 26 -39 48 -47 48 -8 0 -26 -22 -39 -48 -13 -26 -97
-169 -185 -316 -89 -148 -161 -276 -161 -285 -1 -9 -2 -43 -5 -76 -2 -39 2
-72 12 -95 8 -19 21 -50 29 -68 17 -40 19 -210 2 -247 -8 -18 -19 -25 -39 -25
-40 0 -49 24 -49 124 0 75 -4 94 -30 149 -27 58 -30 73 -30 167 l0 103 228
379 c138 233 235 383 247 388 11 4 27 4 36 -1 9 -4 83 -96 165 -204z m6 -330
c75 -99 137 -188 138 -198 0 -17 -24 -66 -58 -118 -9 -15 -34 -55 -55 -89
l-38 -63 2 -135 c2 -127 0 -137 -20 -153 -26 -21 -57 -14 -77 17 -12 17 -15
54 -15 152 0 139 7 168 55 231 14 19 26 40 26 47 0 7 4 14 8 16 16 7 52 67 52
88 0 12 -18 43 -41 68 -23 26 -60 75 -82 110 -25 38 -48 61 -57 60 -8 -2 -27
-28 -43 -58 -15 -30 -33 -64 -40 -75 -7 -11 -27 -45 -44 -76 l-33 -56 0 -171
c0 -142 -3 -173 -16 -186 -21 -22 -50 -20 -75 5 -19 19 -20 30 -17 202 l3 182
35 59 c19 32 42 69 50 81 24 37 85 139 89 150 2 6 17 29 33 53 50 73 61 65
220 -143z m-132 -185 c0 -11 7 -20 15 -20 19 0 19 -34 0 -54 -8 -8 -20 -27
-26 -43 -10 -27 -11 -28 -25 -8 -9 11 -19 19 -23 18 -5 -1 -8 10 -9 25 0 15
-2 38 -4 52 -2 21 1 24 20 22 15 -2 22 2 22 12 0 9 7 16 15 16 8 0 15 -9 15
-20z m-120 -435 c0 -8 -4 -15 -10 -15 -5 0 -10 7 -10 15 0 8 5 15 10 15 6 0
10 -7 10 -15z m-48 -109 c46 -24 119 -62 163 -86 44 -23 127 -67 185 -98 58
-30 112 -59 120 -63 8 -5 38 -19 65 -32 179 -86 353 -181 368 -202 16 -21 17
-46 14 -267 -3 -173 -8 -262 -19 -308 -81 -341 -101 -422 -115 -470 -18 -64
-20 -349 -3 -510 6 -52 15 -178 20 -280 5 -102 14 -239 19 -305 5 -66 15 -194
21 -285 6 -91 18 -207 26 -259 8 -51 19 -175 24 -275 5 -99 12 -200 16 -224 3
-23 7 -75 10 -115 2 -39 9 -133 14 -207 21 -271 31 -540 21 -558 -5 -9 -41
-48 -80 -86 l-71 -68 0 -163 c0 -132 3 -165 15 -175 22 -18 19 -82 -6 -114
-17 -22 -28 -26 -69 -26 -42 0 -51 4 -69 29 -26 35 -27 78 -4 111 15 22 17 47
14 196 l-3 171 92 92 c87 87 92 94 86 124 -4 18 -11 118 -16 222 -5 105 -14
251 -20 325 -6 74 -15 223 -20 330 -13 279 -28 526 -45 750 -8 107 -17 249
-20 315 -3 66 -12 163 -19 215 -26 171 -37 332 -39 540 -1 168 1 212 15 245 9
22 23 78 32 125 10 47 23 108 31 135 7 28 18 73 25 100 7 28 19 77 28 110 19
75 29 445 12 484 -11 28 -39 43 -575 315 -144 73 -275 143 -292 155 -39 29
-54 24 -123 -42 -74 -69 -134 -122 -200 -177 -30 -25 -82 -70 -116 -100 -33
-30 -105 -93 -158 -140 -54 -47 -102 -93 -107 -102 -15 -28 -11 -282 6 -361
19 -88 55 -262 90 -437 10 -47 25 -112 33 -145 24 -91 16 -410 -29 -1125 -6
-96 -15 -326 -19 -510 -5 -184 -16 -481 -24 -660 -9 -179 -16 -344 -16 -368 0
-40 5 -47 81 -125 45 -45 115 -117 155 -160 l74 -78 0 -137 c0 -120 3 -141 20
-167 26 -39 25 -85 -1 -119 -16 -21 -29 -26 -63 -26 -50 0 -80 19 -94 59 -8
23 -6 38 12 77 19 42 22 64 20 156 -2 59 -7 114 -11 123 -5 8 -77 85 -161 170
l-152 154 10 238 c5 131 12 258 15 283 3 25 10 171 15 325 6 154 15 307 21
340 13 84 28 321 40 645 5 151 13 309 19 350 14 121 12 425 -4 489 -8 31 -21
90 -29 131 -9 41 -23 110 -31 152 -9 43 -23 113 -32 155 -8 43 -22 105 -31
138 -12 42 -18 119 -21 257 -4 180 -2 200 14 226 11 16 96 95 189 175 94 80
211 182 260 227 177 158 279 240 297 240 10 0 55 -20 100 -44z m-56 -170 c18
-14 19 -26 16 -183 -2 -92 1 -285 7 -428 6 -143 13 -332 16 -419 2 -87 7 -161
9 -163 3 -3 33 2 68 11 83 21 123 20 207 -3 93 -26 169 -65 230 -118 29 -25
58 -43 65 -40 9 4 17 28 21 64 4 32 13 81 20 108 18 64 38 149 60 250 9 44 23
105 31 136 8 32 14 106 14 177 l0 121 -107 52 c-166 79 -273 133 -331 168 -29
17 -62 31 -73 31 -20 0 -20 -4 -14 -77 9 -113 11 -120 42 -128 16 -3 71 -27
123 -52 52 -25 129 -61 170 -81 41 -19 83 -42 93 -50 22 -19 22 -64 -2 -143
-10 -35 -26 -93 -36 -129 -73 -270 -73 -269 -100 -276 -14 -3 -44 4 -76 19
-195 91 -211 96 -256 95 -38 -2 -49 2 -69 25 -54 63 -11 146 75 147 15 0 38
-16 65 -45 43 -47 188 -127 213 -118 7 3 13 13 13 23 0 37 51 225 77 287 7 17
13 34 13 38 0 3 -34 22 -75 41 -41 19 -110 50 -152 71 -43 20 -102 46 -130 58
-89 38 -92 45 -93 228 0 154 1 159 24 182 22 22 28 23 56 14 82 -29 587 -293
613 -320 l28 -31 -4 -151 c-2 -84 -9 -170 -15 -192 -6 -22 -18 -76 -28 -120
-9 -44 -21 -93 -26 -110 -5 -16 -14 -55 -18 -85 -9 -58 -22 -115 -45 -190 -7
-25 -19 -71 -25 -103 -11 -55 -37 -97 -60 -97 -6 0 -37 27 -71 60 -100 99
-173 143 -273 161 -73 13 -165 5 -221 -21 -64 -29 -90 -33 -107 -16 -20 20
-37 385 -41 905 -3 372 -3 395 15 413 22 22 38 23 64 4z m-156 -171 c20 -24
23 -351 4 -390 -8 -16 -49 -55 -90 -85 -60 -44 -74 -59 -70 -75 5 -18 25 -101
46 -185 5 -19 14 -60 20 -90 7 -30 19 -84 26 -120 8 -36 21 -96 29 -135 7 -38
21 -101 30 -140 12 -50 15 -92 11 -148 -4 -43 -11 -275 -16 -515 -6 -241 -14
-603 -20 -807 -5 -203 -10 -495 -11 -648 -1 -241 1 -281 15 -296 30 -33 12
-101 -34 -126 -31 -17 -89 -3 -112 27 -23 30 -23 62 2 112 18 38 20 76 30 561
5 286 14 651 20 810 5 160 13 445 16 635 6 303 5 353 -10 415 -27 112 -44 185
-60 260 -41 197 -49 234 -61 280 -20 73 -28 141 -21 168 3 14 34 45 72 73 114
85 104 62 108 241 1 43 -26 39 -77 -11 -26 -25 -77 -69 -114 -99 -99 -79 -95
-70 -94 -204 1 -112 17 -212 66 -418 7 -33 21 -96 30 -140 9 -44 26 -118 37
-165 12 -47 21 -105 21 -130 1 -89 -23 -806 -28 -827 -3 -12 -10 -212 -15
-445 -6 -233 -17 -578 -24 -768 -12 -331 -10 -400 15 -400 15 0 10 -69 -7 -95
-19 -29 -75 -43 -108 -27 -13 5 -31 27 -41 48 -18 38 -18 39 4 76 20 36 22 57
31 356 5 174 15 427 21 562 6 135 15 380 19 545 5 165 14 456 21 647 12 315
11 354 -3 415 -10 38 -24 102 -33 143 -9 41 -22 102 -30 135 -7 33 -21 98 -30
145 -10 47 -23 108 -31 137 -9 33 -14 106 -14 211 l0 161 43 40 c23 21 56 50
72 62 17 13 82 67 146 120 153 127 172 137 199 104z m367 -460 c12 -8 29 -12
37 -9 11 4 26 -3 41 -20 13 -14 33 -26 45 -26 11 0 20 -4 20 -10 0 -5 6 -10
14 -10 8 0 26 -14 40 -31 30 -36 35 -101 10 -137 -19 -28 -36 -28 -71 2 -33
27 -95 56 -138 63 -40 6 -49 17 -69 89 -14 48 -16 66 -7 83 14 25 47 27 78 6z
m117 -773 c20 -12 42 -19 50 -16 15 6 92 -80 97 -111 4 -16 12 -20 46 -20 34
0 45 -5 65 -30 44 -56 48 -73 54 -245 5 -146 3 -169 -11 -184 -9 -9 -25 -16
-35 -16 -10 0 -22 -4 -25 -10 -11 -17 -102 -11 -160 11 -41 15 -59 29 -71 51
-21 40 -94 108 -116 108 -10 0 -18 6 -18 13 0 8 -9 22 -20 32 -11 10 -20 28
-20 39 0 23 -92 102 -160 136 -21 11 -43 28 -48 38 -14 26 -22 142 -11 168 7
21 15 24 61 25 29 0 72 8 95 17 61 25 179 22 227 -6z m-2323 -672 l-2 -606 23
-34 c23 -34 25 -35 92 -35 64 0 70 2 90 28 21 28 21 36 23 630 1 331 3 607 3
614 0 9 30 12 112 10 l112 -2 -2 -640 -3 -640 -34 -61 c-38 -67 -74 -102 -139
-137 -36 -18 -57 -21 -166 -21 -115 0 -129 2 -175 26 -82 43 -128 102 -159
203 -13 43 -16 137 -16 645 0 327 0 603 0 612 0 15 14 16 121 15 l121 -2 -1
-605z m1099 588 c77 -20 138 -67 172 -133 20 -38 21 -51 15 -231 -4 -105 -11
-202 -17 -215 -6 -13 -31 -39 -56 -58 -24 -18 -44 -38 -44 -45 0 -6 18 -19 40
-29 22 -10 44 -26 49 -35 8 -17 -13 -583 -24 -629 -7 -29 -76 -68 -145 -82
-78 -15 -480 -21 -480 -7 -1 12 0 1467 0 1477 0 11 442 -1 490 -13z m3086 5
c80 -27 123 -61 169 -133 54 -86 55 -96 55 -608 0 -410 -2 -482 -16 -530 -34
-115 -104 -188 -214 -221 -81 -25 -186 -27 -237 -6 -19 8 -42 15 -50 15 -18 0
-90 55 -118 90 -72 88 -76 126 -77 636 0 310 4 463 12 512 21 114 92 200 205
244 56 22 207 23 271 1z m1700 1 c27 -9 56 -23 65 -30 8 -8 19 -14 24 -14 14
0 75 -73 92 -110 41 -93 43 -119 43 -587 0 -464 -3 -513 -41 -598 -30 -67
-106 -129 -188 -154 -167 -51 -340 -2 -419 119 -62 96 -62 96 -62 629 0 545
-1 538 72 638 38 52 65 72 143 104 55 23 205 24 271 3z m2037 -18 c73 -37 118
-87 148 -162 20 -52 23 -77 24 -199 l0 -139 -108 -1 c-64 0 -111 4 -115 10 -4
5 -7 65 -7 132 0 114 -1 123 -24 147 -46 49 -128 43 -171 -12 -19 -24 -20 -43
-20 -508 l0 -482 31 -31 c53 -53 143 -39 175 27 14 30 16 57 11 169 -3 87 -2
135 5 139 13 8 216 9 224 1 3 -3 5 -70 5 -149 -1 -144 -11 -199 -49 -277 -66
-134 -246 -194 -423 -141 -100 30 -166 97 -202 204 -15 44 -17 109 -17 542 0
435 2 498 17 545 20 63 70 134 116 163 73 46 107 55 217 53 94 -2 111 -5 163
-31z m796 1 c68 -35 91 -57 129 -129 24 -45 32 -79 42 -163 7 -58 9 -109 5
-113 -4 -4 -56 -8 -116 -8 -124 -2 -126 0 -113 82 11 78 -40 154 -106 154 -41
0 -92 -32 -106 -66 -26 -62 -13 -162 30 -229 11 -16 90 -100 176 -185 122
-122 162 -168 184 -215 32 -67 56 -168 55 -235 0 -68 -24 -180 -48 -226 -66
-133 -261 -197 -433 -144 -110 34 -178 110 -207 231 -16 69 -24 199 -12 212 6
8 47 12 118 12 l108 0 3 -85 c3 -113 7 -127 45 -150 68 -42 157 -13 176 57 21
75 7 168 -36 236 -13 21 -93 107 -177 190 -128 127 -158 163 -183 217 -82 175
-60 393 49 503 67 66 130 87 258 84 93 -2 111 -5 159 -30z m-1821 11 c17 -17
17 -214 0 -221 -7 -2 -60 -1 -117 4 -58 4 -109 5 -114 2 -5 -3 -8 -255 -6
-636 l4 -631 -120 -1 -120 0 -1 635 -2 635 -120 -4 -121 -3 -3 101 c-2 56 -2
105 0 110 1 4 139 6 305 4 166 -1 322 1 347 6 25 5 47 9 51 10 3 1 10 -4 17
-11z m-3496 -31 c71 -33 100 -61 133 -132 25 -52 29 -75 33 -180 7 -198 -23
-299 -104 -348 -50 -30 -50 -50 1 -67 40 -13 68 -57 90 -139 11 -44 15 -115
15 -282 0 -182 3 -230 15 -253 9 -16 14 -35 11 -41 -7 -18 -245 -12 -257 6 -5
8 -9 128 -9 267 0 329 -5 341 -151 357 -40 5 -58 3 -65 -7 -6 -8 -7 -77 -3
-183 12 -301 11 -445 -4 -451 -8 -3 -42 -1 -78 3 l-64 8 -7 100 c-4 55 -12
174 -18 265 -14 240 -38 559 -49 680 -11 108 -15 413 -6 422 3 2 108 3 234 1
217 -2 232 -4 283 -26z m1691 3 c60 -27 109 -76 138 -137 20 -43 22 -64 23
-203 0 -138 -2 -160 -21 -200 -22 -47 -52 -79 -90 -99 -13 -6 -23 -16 -23 -21
0 -5 23 -24 50 -42 38 -25 58 -47 78 -88 26 -52 27 -63 30 -228 3 -141 0 -182
-13 -223 -23 -67 -51 -109 -100 -145 -76 -57 -107 -63 -368 -66 -130 -2 -237
-1 -237 2 0 8 -1 1465 0 1471 0 4 109 5 243 3 221 -2 246 -4 290 -24z m2165
-712 l-3 -743 -118 0 -118 1 0 739 c0 407 1 741 1 743 0 1 54 2 120 2 l120 0
-2 -742z m-5204 428 c76 -136 198 -263 310 -320 87 -46 161 -49 236 -11 104
53 123 35 131 -129 10 -198 29 -511 40 -666 5 -80 14 -248 20 -375 21 -538 29
-646 44 -668 21 -30 19 -80 -6 -111 -29 -37 -89 -37 -118 0 -27 34 -27 70 0
113 19 32 20 40 10 180 -6 80 -16 254 -21 386 -15 379 -29 666 -42 850 -6 94
-12 200 -14 236 -2 77 -8 93 -32 80 -9 -4 -40 -14 -69 -21 -133 -31 -335 72
-450 230 -23 32 -47 61 -54 65 -16 10 -30 -16 -22 -40 3 -11 6 -472 6 -1025 0
-553 2 -1059 4 -1125 l6 -120 93 -94 94 -93 0 -160 c0 -145 2 -162 20 -185 27
-35 25 -75 -6 -112 -72 -86 -203 24 -134 112 18 22 20 40 20 164 l0 138 -100
98 -101 98 2 1267 c0 795 5 1274 11 1285 12 24 49 37 70 26 9 -5 32 -38 52
-73z m6666 -216 c0 -5 -7 -10 -15 -10 -8 0 -15 5 -15 10 0 6 7 10 15 10 8 0
15 -4 15 -10z m-857 -54 c40 -40 196 -46 239 -9 17 15 38 10 38 -8 0 -13 75
-111 118 -155 17 -18 32 -37 32 -43 0 -5 11 -18 25 -29 14 -11 25 -26 25 -34
0 -8 5 -19 12 -26 8 -8 8 -15 -2 -27 -10 -12 -29 -15 -84 -13 -68 3 -72 5
-116 46 -26 24 -62 47 -85 53 -22 6 -48 15 -58 21 -11 5 -23 5 -30 0 -7 -4
-24 -9 -40 -10 -34 -2 -93 -32 -128 -66 -15 -14 -30 -22 -33 -19 -3 4 -6 79
-6 168 0 172 5 191 47 180 12 -3 33 -16 46 -29z m-5616 -227 c43 -17 96 -39
118 -48 22 -10 60 -26 85 -35 75 -30 91 -39 100 -56 11 -21 27 -417 36 -870 8
-466 15 -584 37 -608 44 -48 -2 -142 -69 -142 -41 0 -94 43 -94 76 0 13 9 40
19 61 20 40 20 99 -17 1206 l-7 219 -82 32 c-45 18 -94 41 -108 50 -14 10 -31
16 -37 14 -7 -3 -10 -273 -9 -875 l1 -872 95 -94 96 -93 -1 -155 c-2 -143 0
-158 20 -192 31 -53 21 -102 -24 -124 -63 -30 -126 8 -126 75 0 20 7 46 15 56
12 15 15 51 15 154 l0 133 -100 104 -100 105 -1 167 c-1 93 0 512 0 933 2 655
4 768 17 788 19 29 27 28 121 -9z m103 -365 c0 -31 -23 -28 -28 4 -2 15 2 22
12 22 11 0 16 -9 16 -26z m20 -100 c0 -15 -6 -24 -15 -24 -11 0 -15 11 -15 36
0 31 2 35 15 24 8 -7 15 -23 15 -36z m0 -72 c0 -10 -7 -27 -15 -38 -19 -25
-19 -48 0 -64 11 -9 15 -34 15 -96 0 -68 -3 -84 -15 -84 -11 0 -15 11 -15 39
0 22 -5 43 -11 46 -5 4 -8 19 -5 33 3 15 8 62 11 105 5 57 10 77 21 77 8 0 14
-8 14 -18z"/>
<path d="M3880 6940 c-10 -6 -13 -52 -13 -199 0 -106 3 -195 7 -198 4 -4 41
-2 82 4 88 13 116 33 134 98 7 24 11 80 9 128 -4 92 -22 131 -70 153 -32 15
-132 24 -149 14z"/>
<path d="M3869 6333 c-1 -8 0 -431 0 -447 1 -13 166 0 199 16 35 17 50 73 51
190 1 98 -14 185 -36 210 -25 28 -211 55 -214 31z"/>
<path d="M7023 6935 c-20 -8 -40 -29 -52 -54 -20 -39 -21 -56 -21 -481 0 -467
1 -482 48 -523 26 -23 88 -32 124 -18 16 6 37 25 48 43 19 32 20 51 20 497 0
448 -1 465 -20 496 -19 31 -63 55 -99 55 -9 -1 -30 -7 -48 -15z"/>
<path d="M8723 6937 c-12 -7 -31 -24 -42 -39 -21 -26 -21 -35 -21 -506 l0
-480 35 -31 c61 -53 144 -38 178 32 17 34 19 70 18 487 -1 501 -1 503 -64 533
-41 20 -73 21 -104 4z"/>
<path d="M6135 6920 c-5 -8 -8 -210 -5 -407 0 -19 101 -17 149 3 56 22 71 65
71 204 0 119 -14 169 -54 188 -32 16 -153 24 -161 12z"/>
<path d="M7819 6924 c0 -5 -1 -94 -1 -199 l-1 -190 58 -3 c66 -3 103 8 136 44
19 21 24 38 27 114 8 165 -18 230 -92 230 -18 0 -54 3 -80 6 -25 4 -46 3 -47
-2z"/>
<path d="M7825 6323 c-11 -3 -12 -439 -1 -451 10 -10 158 -2 181 10 50 25 55
44 55 201 0 206 -15 230 -150 239 -41 3 -79 3 -85 1z"/>
<path d="M6016 7485 c-3 -9 1 -18 10 -22 19 -7 28 2 21 22 -8 19 -23 19 -31 0z"/>
</g>
</svg>
