<?xml version="1.0" standalone="no"?>
<!DOCTYPE svg PUBLIC "-//W3C//DTD SVG 20010904//EN"
 "http://www.w3.org/TR/2001/REC-SVG-20010904/DTD/svg10.dtd">
<svg version="1.0" xmlns="http://www.w3.org/2000/svg"
 width="450.000000pt" height="450.000000pt" viewBox="0 0 450.000000 450.000000"
 preserveAspectRatio="xMidYMid meet">
<metadata>
Created by potrace 1.10, written by Peter Selinger 2001-2011
</metadata>
<g transform="translate(0.000000,450.000000) scale(0.100000,-0.100000)"
fill="#000000" stroke="none">
<path d="M0 2250 l0 -2250 2250 0 2250 0 0 2250 0 2250 -2250 0 -2250 0 0
-2250z m1711 1240 l-3 -85 -99 -161 c-102 -166 -114 -199 -84 -238 21 -28 21
-136 0 -136 -11 0 -15 13 -15 53 -1 28 -7 63 -15 77 -30 53 -20 82 86 253
l101 162 -5 83 c-5 80 -4 83 16 80 20 -3 21 -8 18 -88z m111 -246 c72 -93 77
-102 78 -149 0 -28 -4 -55 -9 -60 -6 -6 -11 -41 -13 -79 -2 -44 -8 -71 -15
-74 -16 -5 -18 153 -3 163 6 3 10 24 10 46 0 33 -11 54 -67 129 -37 49 -70 87
-74 85 -4 -3 -35 -52 -69 -110 -59 -99 -62 -108 -55 -148 12 -66 11 -120 -1
-124 -7 -2 -14 13 -18 39 -20 149 -24 126 50 250 80 134 84 140 98 135 6 -2
46 -48 88 -103z m-24 -74 l43 -59 -25 -39 c-15 -25 -26 -58 -28 -88 -2 -27 -8
-49 -15 -52 -23 -7 -16 95 9 139 l21 38 -28 41 c-15 22 -30 40 -34 40 -3 0
-18 -22 -33 -49 -22 -37 -28 -62 -28 -106 0 -41 -3 -55 -12 -52 -9 2 -13 26
-13 68 0 55 5 72 35 122 19 31 41 57 50 57 8 0 34 -27 58 -60z m180 -387 c19
-12 22 -22 22 -85 0 -43 -11 -115 -27 -182 l-26 -111 17 -265 c9 -146 24 -365
33 -488 l16 -223 -28 -28 c-25 -27 -27 -34 -24 -100 4 -80 -11 -111 -36 -77
-10 13 -11 24 -5 36 5 10 9 41 9 70 -1 43 3 56 26 80 l27 28 -11 148 c-20 265
-51 745 -52 798 -1 46 -2 48 -11 24 -12 -34 -18 -35 -48 -3 -38 40 -99 59
-150 45 -23 -6 -44 -9 -47 -6 -3 2 -7 102 -10 222 -5 183 -4 216 8 212 11 -4
15 -45 20 -199 4 -107 7 -196 8 -198 0 -2 16 0 34 3 37 7 88 -7 130 -36 21
-15 28 -16 32 -6 16 43 45 196 45 233 l0 45 -80 40 c-44 22 -84 40 -90 40 -5
0 -10 -14 -10 -31 0 -28 5 -33 75 -64 46 -21 75 -40 75 -50 0 -18 -37 -156
-44 -163 -3 -2 -29 5 -58 16 -29 11 -61 23 -70 26 -22 7 -23 19 -4 35 11 9 22
6 51 -14 21 -14 44 -25 51 -25 7 0 18 19 24 43 6 23 14 50 16 60 4 14 -9 24
-63 48 -37 17 -71 36 -75 43 -14 20 -9 106 6 112 8 3 64 -20 126 -51 62 -31
110 -50 108 -43 -4 13 -283 168 -303 168 -6 0 -58 -43 -118 -95 l-107 -96 0
-53 c0 -30 12 -107 26 -172 l25 -119 -11 -250 c-6 -137 -14 -333 -18 -435 l-7
-185 49 -53 c47 -50 51 -58 57 -120 8 -70 1 -89 -25 -79 -13 5 -15 17 -10 66
l7 60 -57 59 -57 60 22 430 22 431 -27 128 c-31 152 -34 232 -8 260 9 11 53
51 97 89 44 38 82 72 85 75 3 3 16 12 29 21 23 16 28 14 170 -59 80 -42 156
-82 169 -90z m-348 -24 c0 -54 -3 -63 -30 -88 l-31 -28 26 -117 25 -118 -6
-417 c-3 -229 -8 -418 -10 -421 -9 -9 -39 18 -35 32 3 7 9 189 14 405 l9 392
-26 118 c-14 65 -26 124 -26 131 0 7 14 25 30 39 21 17 30 34 30 54 0 16 -4
29 -8 29 -5 0 -27 -16 -50 -36 -52 -44 -53 -62 -16 -231 l26 -118 -13 -382
c-6 -210 -9 -400 -6 -422 6 -47 -13 -72 -37 -52 -11 9 -12 20 -6 39 5 15 14
205 20 422 l12 395 -26 117 c-14 65 -26 139 -26 166 0 47 2 50 63 100 85 69
97 68 97 -9z m-620 -572 c0 -210 3 -227 42 -227 32 0 38 34 38 234 l0 196 35
0 35 0 0 -219 0 -219 -29 -31 c-25 -27 -36 -31 -80 -31 -61 0 -95 19 -110 62
-7 18 -11 115 -11 234 l0 204 40 0 40 0 0 -203z m404 174 c23 -22 26 -32 26
-94 0 -52 -4 -75 -17 -89 -13 -14 -14 -21 -5 -30 19 -19 16 -213 -3 -232 -20
-20 -66 -28 -140 -24 l-60 3 -3 235 c-1 129 0 241 3 248 4 11 25 13 89 11 73
-4 88 -7 110 -28z m1000 19 c14 -5 35 -24 46 -42 18 -30 20 -51 20 -201 0
-187 -7 -215 -62 -243 -36 -19 -96 -14 -133 10 -13 9 -29 33 -34 53 -14 49
-14 307 0 356 17 63 93 94 163 67z m583 -10 c21 -13 35 -31 42 -57 14 -49 14
-307 0 -356 -25 -92 -170 -103 -214 -16 -13 25 -16 61 -13 209 3 161 5 180 23
200 39 44 109 53 162 20z m681 -14 c22 -22 27 -35 27 -83 l0 -58 -35 0 c-34 0
-35 1 -40 44 -6 51 -29 73 -54 52 -14 -12 -16 -37 -14 -180 l3 -166 30 0 c29
0 30 2 35 55 3 30 8 54 13 53 4 -2 21 -3 37 -3 30 0 30 -1 30 -52 0 -63 -27
-113 -68 -129 -41 -16 -101 -4 -131 25 l-26 26 0 196 0 196 34 30 c30 27 39
30 83 26 36 -4 57 -12 76 -32z m241 20 c32 -17 51 -54 51 -101 0 -33 -2 -35
-35 -35 -30 0 -35 3 -35 24 0 23 -23 56 -38 56 -13 0 -28 -15 -35 -33 -11 -29
11 -68 73 -133 63 -66 85 -117 73 -175 -12 -66 -54 -99 -122 -99 -62 0 -118
69 -109 132 2 19 9 23 38 23 32 0 35 -3 40 -35 4 -29 10 -36 33 -38 21 -3 29
2 36 20 14 38 -6 79 -68 143 -70 70 -89 120 -71 185 19 69 101 101 169 66z
m-1752 -20 c26 -23 28 -30 28 -99 0 -60 -4 -79 -20 -97 -13 -15 -16 -23 -8
-28 22 -14 33 -64 33 -153 l0 -90 -37 3 -38 3 -5 90 c-6 101 -11 115 -46 115
-24 0 -24 0 -24 -105 l0 -105 -25 0 c-18 0 -26 6 -29 23 -7 36 -26 326 -26
400 l0 67 84 0 c75 0 88 -3 113 -24z m564 -5 c26 -26 29 -37 29 -89 0 -44 -5
-66 -19 -83 -19 -23 -19 -24 5 -52 20 -24 24 -40 24 -93 0 -116 -31 -144 -160
-144 l-80 0 0 245 0 245 86 0 c81 0 87 -1 115 -29z m579 -6 c0 -34 -1 -35 -40
-35 l-40 0 0 -210 0 -210 -40 0 -40 0 0 210 0 210 -40 0 c-39 0 -40 1 -40 35
l0 35 120 0 120 0 0 -35z m120 -210 l0 -245 -40 0 -40 0 0 245 0 245 40 0 40
0 0 -245z m-1723 121 c17 -24 47 -56 67 -71 33 -25 42 -27 90 -21 l54 6 6 -88
c3 -48 11 -179 16 -292 6 -113 13 -219 16 -236 4 -22 1 -33 -9 -37 -24 -9 -40
9 -33 38 7 26 -9 449 -20 533 -5 41 -6 42 -45 42 -48 0 -84 17 -123 59 -17 17
-33 31 -38 31 -5 0 -8 -171 -8 -381 l1 -380 33 -37 c30 -33 34 -44 37 -107 4
-66 3 -70 -18 -73 -22 -3 -22 -1 -16 62 6 65 5 66 -31 106 l-36 40 0 418 c0
230 3 422 7 425 12 13 19 7 50 -37z m103 -166 l45 -18 6 -73 c4 -41 7 -147 8
-236 1 -101 5 -172 13 -188 10 -22 9 -28 -3 -36 -8 -5 -18 -7 -24 -6 -6 2 -11
76 -12 188 -2 101 -5 217 -9 257 -6 71 -6 73 -41 87 -19 8 -39 13 -44 10 -4
-3 -7 -133 -6 -290 l2 -284 31 -33 c28 -30 32 -41 37 -111 5 -76 5 -78 -16
-75 -21 3 -22 7 -18 71 3 65 2 68 -33 107 l-36 40 0 294 c0 162 3 302 6 310 7
18 15 17 94 -14z"/>
<path d="M1956 2615 c-3 -9 -6 -24 -5 -33 0 -9 5 -4 10 12 9 32 6 48 -5 21z"/>
<path d="M1941 2544 c0 -11 3 -14 6 -6 3 7 2 16 -1 19 -3 4 -6 -2 -5 -13z"/>
<path d="M1930 2500 c0 -7 3 -10 7 -7 3 4 3 10 0 14 -4 3 -7 0 -7 -7z"/>
<path d="M1921 2454 c0 -11 3 -14 6 -6 3 7 2 16 -1 19 -3 4 -6 -2 -5 -13z"/>
<path d="M1303 2313 c-9 -3 -13 -25 -13 -64 0 -59 0 -59 30 -59 33 0 50 22 50
68 0 38 -35 66 -67 55z"/>
<path d="M1290 2040 l0 -70 35 0 c40 0 49 13 49 71 0 57 -9 69 -49 69 l-35 0
0 -70z"/>
<path d="M2336 2304 c-13 -13 -16 -42 -16 -164 0 -82 3 -155 6 -164 8 -21 60
-21 68 0 3 9 6 85 6 169 0 142 -2 155 -19 165 -25 13 -27 13 -45 -6z"/>
<path d="M2907 2307 c-16 -11 -17 -31 -15 -177 l3 -165 32 -3 c29 -3 32 0 38
31 4 18 5 95 3 171 -2 108 -6 139 -18 146 -20 13 -23 12 -43 -3z"/>
<path d="M2050 2240 c0 -62 2 -70 19 -70 32 0 51 28 51 74 0 47 -13 66 -47 66
-22 0 -23 -4 -23 -70z"/>
<path d="M2610 2245 c0 -61 1 -65 23 -65 34 0 47 19 47 71 0 48 -9 59 -51 59
-17 0 -19 -8 -19 -65z"/>
<path d="M2610 2035 l0 -75 28 0 c40 0 52 17 52 75 0 58 -12 75 -52 75 l-28 0
0 -75z"/>
</g>
</svg>
