<?xml version="1.0" standalone="no"?>
<!DOCTYPE svg PUBLIC "-//W3C//DTD SVG 20010904//EN"
 "http://www.w3.org/TR/2001/REC-SVG-20010904/DTD/svg10.dtd">
<svg version="1.0" xmlns="http://www.w3.org/2000/svg"
 width="450.000000pt" height="450.000000pt" viewBox="0 0 450.000000 450.000000"
 preserveAspectRatio="xMidYMid meet">
<metadata>
Created by potrace 1.10, written by Peter Selinger 2001-2011
</metadata>
<g transform="translate(0.000000,450.000000) scale(0.100000,-0.100000)"
fill="#000000" stroke="none">
<path d="M1677 3498 l5 -83 -101 -162 c-106 -171 -116 -200 -86 -253 8 -14 14
-49 15 -77 0 -40 4 -53 15 -53 21 0 21 108 0 136 -30 39 -18 72 84 238 l99
161 3 85 c3 80 2 85 -18 88 -20 3 -21 0 -16 -80z"/>
<path d="M1713 3338 c-5 -7 -40 -64 -77 -126 -74 -124 -70 -101 -50 -250 4
-26 11 -41 18 -39 12 4 13 58 1 124 -7 40 -4 49 55 148 34 58 65 107 69 110 4
2 37 -36 74 -85 56 -75 67 -96 67 -129 0 -22 -4 -43 -10 -46 -15 -10 -13 -168
3 -163 7 3 13 30 15 74 2 38 7 73 13 79 5 5 9 32 9 60 -1 47 -6 56 -78 149
-42 55 -82 101 -88 103 -6 2 -15 -2 -21 -9z"/>
<path d="M1690 3173 c-30 -50 -35 -67 -35 -122 0 -42 4 -66 13 -68 9 -3 12 11
12 52 0 44 6 69 28 106 15 27 30 49 33 49 4 0 19 -18 34 -40 l28 -41 -21 -38
c-25 -44 -32 -146 -9 -139 7 3 13 25 15 52 2 30 13 63 28 88 l25 39 -43 59
c-24 33 -50 60 -58 60 -9 0 -31 -26 -50 -57z"/>
<path d="M1639 2932 c-13 -9 -26 -18 -29 -21 -3 -3 -41 -37 -85 -75 -44 -38
-88 -78 -97 -89 -26 -28 -23 -108 8 -260 l27 -128 -22 -431 -22 -430 57 -60
57 -59 -7 -60 c-5 -49 -3 -61 10 -66 26 -10 33 9 25 79 -6 62 -10 70 -57 120
l-49 53 7 185 c4 102 12 298 18 435 l11 250 -25 119 c-14 65 -26 142 -26 172
l0 53 107 96 c60 52 112 95 118 95 20 0 299 -155 303 -168 2 -7 -46 12 -108
43 -62 31 -118 54 -126 51 -15 -6 -20 -92 -6 -112 4 -7 38 -26 75 -43 54 -24
67 -34 63 -48 -2 -10 -10 -37 -16 -60 -6 -24 -17 -43 -24 -43 -7 0 -30 11 -51
25 -29 20 -40 23 -51 14 -19 -16 -18 -28 4 -35 9 -3 41 -15 70 -26 29 -11 55
-18 58 -16 7 7 44 145 44 163 0 10 -29 29 -75 50 -70 31 -75 36 -75 64 0 17 5
31 10 31 6 0 46 -18 90 -40 l80 -40 0 -45 c0 -37 -29 -190 -45 -233 -4 -10
-11 -9 -32 6 -42 29 -93 43 -130 36 -18 -3 -34 -5 -34 -3 -1 2 -4 91 -8 198
-5 154 -9 195 -20 199 -12 4 -13 -29 -8 -212 3 -120 7 -220 10 -222 3 -3 24 0
47 6 51 14 112 -5 150 -45 30 -32 36 -31 48 3 9 24 10 22 11 -24 1 -53 32
-533 52 -798 l11 -148 -27 -28 c-23 -24 -27 -37 -26 -80 0 -29 -4 -60 -9 -70
-6 -12 -5 -23 5 -36 25 -34 40 -3 36 77 -3 66 -1 73 24 100 l28 28 -16 223
c-9 123 -24 342 -33 488 l-17 265 26 111 c16 67 27 139 27 182 0 84 19 66
-191 175 -142 73 -147 75 -170 59z m322 -338 c-5 -16 -10 -21 -10 -12 -1 18
10 51 15 45 2 -1 -1 -16 -5 -33z m-14 -56 c-3 -8 -6 -5 -6 6 -1 11 2 17 5 13
3 -3 4 -12 1 -19z m-10 -45 c-4 -3 -7 0 -7 7 0 7 3 10 7 7 3 -4 3 -10 0 -14z
m-10 -45 c-3 -8 -6 -5 -6 6 -1 11 2 17 5 13 3 -3 4 -12 1 -19z"/>
<path d="M1533 2768 c-61 -50 -63 -53 -63 -100 0 -27 12 -101 26 -166 l26
-117 -12 -395 c-6 -217 -15 -407 -20 -422 -6 -19 -5 -30 6 -39 24 -20 43 5 37
52 -3 22 0 212 6 422 l13 382 -26 118 c-37 169 -36 187 16 231 23 20 45 36 50
36 4 0 8 -13 8 -29 0 -20 -9 -37 -30 -54 -16 -14 -30 -32 -30 -39 0 -7 12 -66
26 -131 l26 -118 -9 -392 c-5 -216 -11 -398 -14 -405 -4 -14 26 -41 35 -32 2
3 7 192 10 421 l6 417 -25 118 -26 117 31 28 c27 25 30 34 30 88 0 77 -12 78
-97 9z"/>
<path d="M930 2186 c0 -119 4 -216 11 -234 15 -43 49 -62 110 -62 44 0 55 4
80 31 l29 31 0 219 0 219 -35 0 -35 0 0 -196 c0 -200 -6 -234 -38 -234 -39 0
-42 17 -42 227 l0 203 -40 0 -40 0 0 -204z"/>
<path d="M1215 2378 c-3 -7 -4 -119 -3 -248 l3 -235 60 -3 c74 -4 120 4 140
24 19 19 22 213 3 232 -9 9 -8 16 5 30 13 14 17 37 17 89 0 62 -3 72 -26 94
-22 21 -37 24 -110 28 -64 2 -85 0 -89 -11z m143 -81 c15 -12 16 -61 2 -88 -7
-12 -21 -19 -40 -19 -30 0 -30 0 -30 59 0 70 20 85 68 48z m9 -204 c9 -22 9
-83 0 -106 -4 -12 -17 -17 -42 -17 l-35 0 0 70 0 70 35 0 c24 0 38 -5 42 -17z"/>
<path d="M2293 2370 c-21 -13 -35 -31 -42 -57 -14 -49 -14 -307 0 -356 25 -91
169 -103 214 -17 12 22 15 66 15 197 0 150 -2 171 -20 201 -33 54 -108 69
-167 32z m88 -60 c17 -10 19 -23 19 -165 0 -84 -3 -160 -6 -169 -8 -21 -60
-21 -68 0 -3 9 -6 82 -6 164 0 122 3 151 16 164 18 19 20 19 45 6z"/>
<path d="M2875 2381 c-11 -5 -29 -19 -40 -31 -18 -20 -20 -39 -23 -200 -3
-148 0 -184 13 -209 21 -41 68 -65 117 -58 55 7 85 31 97 74 14 49 14 307 0
356 -17 62 -97 95 -164 68z m75 -71 c12 -7 16 -38 18 -146 2 -76 1 -153 -3
-171 -6 -31 -9 -34 -38 -31 l-32 3 -3 165 c-2 146 -1 166 15 177 20 15 23 16
43 3z"/>
<path d="M3519 2362 l-34 -30 0 -196 0 -196 26 -26 c30 -29 90 -41 131 -25 41
16 68 66 68 129 0 51 0 52 -30 52 -16 0 -33 1 -37 3 -5 1 -10 -23 -13 -53 -5
-53 -6 -55 -35 -55 l-30 0 -3 166 c-2 143 0 168 14 180 25 21 48 -1 54 -52 5
-43 6 -44 40 -44 l35 0 0 58 c-1 75 -29 107 -103 115 -44 4 -53 1 -83 -26z"/>
<path d="M3793 2370 c-22 -13 -35 -31 -43 -60 -18 -65 1 -115 71 -185 62 -64
82 -105 68 -143 -7 -18 -15 -23 -36 -20 -23 2 -29 9 -33 38 -5 32 -8 35 -40
35 -29 0 -36 -4 -38 -23 -9 -63 47 -132 109 -132 68 0 110 33 122 99 12 58
-10 109 -73 175 -62 65 -84 104 -73 133 7 18 22 33 35 33 15 0 38 -33 38 -56
0 -21 5 -24 35 -24 33 0 35 2 35 35 0 19 -5 46 -12 60 -24 54 -106 71 -165 35z"/>
<path d="M1970 2313 c0 -74 19 -364 26 -400 3 -17 11 -23 29 -23 l25 0 0 105
c0 105 0 105 24 105 35 0 40 -14 46 -115 l5 -90 38 -3 37 -3 0 90 c0 89 -11
139 -33 153 -8 5 -5 13 8 28 16 18 20 37 20 97 0 69 -2 76 -28 99 -25 21 -38
24 -113 24 l-84 0 0 -67z m138 -15 c18 -18 15 -94 -4 -112 -8 -9 -24 -16 -35
-16 -17 0 -19 8 -19 70 0 66 1 70 23 70 13 0 28 -5 35 -12z"/>
<path d="M2530 2135 l0 -245 80 0 c129 0 160 28 160 144 0 53 -4 69 -24 93
-24 28 -24 29 -5 52 14 17 19 39 19 83 0 52 -3 63 -29 89 -28 28 -34 29 -115
29 l-86 0 0 -245z m134 169 c11 -4 16 -20 16 -53 0 -52 -13 -71 -47 -71 -22 0
-23 4 -23 65 0 68 8 77 54 59z m14 -206 c16 -16 16 -110 0 -126 -7 -7 -25 -12
-40 -12 l-28 0 0 75 0 75 28 0 c15 0 33 -5 40 -12z"/>
<path d="M3070 2345 c0 -34 1 -35 40 -35 l40 0 0 -210 0 -210 40 0 40 0 0 210
0 210 40 0 c39 0 40 1 40 35 l0 35 -120 0 -120 0 0 -35z"/>
<path d="M3350 2135 l0 -245 40 0 40 0 0 245 0 245 -40 0 -40 0 0 -245z"/>
<path d="M1657 2293 c-4 -3 -7 -195 -7 -425 l0 -418 36 -40 c36 -40 37 -41 31
-106 -6 -63 -6 -65 16 -62 21 3 22 7 18 73 -3 63 -7 74 -37 107 l-33 37 -1
380 c0 210 3 381 8 381 5 0 21 -14 38 -31 39 -42 75 -59 123 -59 39 0 40 -1
45 -42 11 -84 27 -507 20 -533 -7 -29 9 -47 33 -38 10 4 13 15 9 37 -3 17 -10
123 -16 236 -5 113 -13 244 -16 292 l-6 88 -54 -6 c-48 -6 -57 -4 -90 21 -20
15 -50 47 -67 71 -31 44 -38 50 -50 37z"/>
<path d="M1716 2104 c-3 -8 -6 -148 -6 -310 l0 -294 36 -40 c35 -39 36 -42 33
-107 -4 -64 -3 -68 18 -71 21 -3 21 -1 16 75 -5 70 -9 81 -37 111 l-31 33 -2
284 c-1 157 2 287 6 290 5 3 25 -2 44 -10 35 -14 35 -16 41 -87 4 -40 7 -156
9 -257 1 -112 6 -186 12 -188 6 -1 16 1 24 6 12 8 13 14 3 36 -8 16 -12 87
-13 188 -1 89 -4 195 -8 236 l-6 73 -45 18 c-79 31 -87 32 -94 14z"/>
</g>
</svg>
