<?xml version="1.0" standalone="no"?>
<!DOCTYPE svg PUBLIC "-//W3C//DTD SVG 20010904//EN"
 "http://www.w3.org/TR/2001/REC-SVG-20010904/DTD/svg10.dtd">
<svg version="1.0" xmlns="http://www.w3.org/2000/svg"
 width="450.000000pt" height="450.000000pt" viewBox="0 0 450.000000 450.000000"
 preserveAspectRatio="xMidYMid meet">
<metadata>
Created by potrace 1.10, written by Peter Selinger 2001-2011
</metadata>
<g transform="translate(0.000000,450.000000) scale(0.100000,-0.100000)"
fill="#000000" stroke="none">
<path d="M0 2250 l0 -2250 2250 0 2250 0 0 2250 0 2250 -2250 0 -2250 0 0
-2250z m1725 1354 c16 -12 20 -28 21 -82 3 -150 3 -152 20 -152 8 0 12 -4 9
-10 -3 -5 -2 -10 4 -10 5 0 26 -24 47 -52 20 -29 43 -57 49 -63 25 -22 65
-104 65 -134 0 -17 -7 -48 -15 -68 -24 -56 -19 -183 7 -183 5 0 29 -13 52 -30
35 -23 44 -36 49 -67 5 -37 -4 -147 -18 -208 -4 -16 -8 -50 -8 -75 l-2 -45 70
-6 c74 -6 99 -15 129 -48 l18 -20 30 29 c37 38 96 54 145 41 20 -6 41 -7 47
-4 6 3 8 3 4 -2 -4 -4 3 -15 15 -25 21 -17 23 -17 50 6 25 21 39 24 109 24 77
0 83 -2 123 -34 l41 -34 40 36 c36 32 44 36 100 36 46 1 67 -4 81 -16 24 -22
42 -23 49 -4 5 12 38 15 187 14 180 0 182 0 203 -24 20 -25 20 -25 45 -5 33
25 94 41 133 34 17 -3 47 -18 68 -34 33 -26 37 -27 50 -12 39 48 154 62 203
25 54 -41 79 -112 55 -157 -15 -28 -63 -51 -82 -39 -7 5 3 -11 22 -34 55 -67
70 -102 70 -160 0 -67 -28 -125 -72 -147 -37 -18 -128 -22 -155 -6 -10 6 -13
11 -8 11 6 0 -3 7 -20 16 -24 12 -34 13 -52 3 -12 -7 -19 -17 -16 -23 3 -6 3
-8 -2 -4 -4 4 -17 2 -28 -4 -36 -19 -107 -11 -149 17 l-39 26 -29 -25 c-36
-30 -83 -28 -111 5 -17 20 -19 40 -19 206 0 170 -1 184 -17 181 -16 -3 -19
-22 -23 -188 -5 -168 -7 -187 -25 -206 -31 -31 -76 -30 -105 3 -14 15 -25 34
-26 41 -1 6 -2 90 -3 185 -2 94 -5 166 -8 159 -2 -6 -8 -10 -11 -8 -4 2 -7
-48 -7 -112 0 -149 -7 -194 -36 -237 -22 -32 -28 -36 -45 -34 -4 0 -10 -4 -14
-10 -3 -6 -30 -12 -59 -12 -44 -1 -60 4 -97 29 -40 29 -74 34 -74 11 0 -5 -7
-9 -16 -9 -8 0 -13 -4 -10 -8 5 -9 2 -9 -111 -18 -79 -6 -82 -5 -104 20 l-22
25 -44 -26 c-39 -23 -52 -25 -109 -20 -43 3 -72 11 -85 23 -17 16 -22 16 -29
4 -6 -8 -10 -11 -10 -7 0 5 -7 1 -16 -7 -8 -9 -24 -16 -35 -16 -27 0 -79 28
-79 43 -1 6 -8 3 -18 -8 -9 -12 -25 -24 -35 -28 -16 -6 -18 -15 -13 -69 3 -35
8 -132 12 -215 l7 -153 -26 -37 c-22 -32 -26 -48 -24 -100 1 -48 -2 -66 -17
-82 -24 -27 -48 -27 -72 0 -27 30 -21 170 8 212 11 15 21 35 22 45 3 18 -34
42 -68 42 -11 0 -29 7 -40 15 -16 12 -18 30 -19 164 -1 83 -4 151 -9 151 -4 0
-8 -30 -9 -67 0 -38 -2 -110 -5 -160 -3 -62 0 -93 7 -93 5 0 7 -4 4 -10 -3 -5
-2 -10 3 -10 17 0 53 -80 52 -117 -1 -21 2 -48 5 -60 4 -13 3 -23 -3 -23 -5 0
-12 -9 -15 -21 -3 -12 -10 -18 -16 -14 -6 3 -11 2 -11 -3 0 -6 -19 -20 -41
-32 l-42 -21 -23 22 c-20 19 -24 32 -24 84 0 54 -4 65 -30 95 -24 27 -30 42
-30 81 0 40 -4 49 -21 54 -14 5 -28 0 -45 -16 -31 -29 -30 -40 5 -77 23 -26
29 -43 35 -103 7 -81 -7 -119 -47 -119 -44 1 -60 25 -60 87 1 51 -3 63 -34
100 -19 23 -41 50 -51 59 -19 19 -20 52 -7 256 l8 137 -86 -1 c-73 -1 -90 3
-116 21 l-31 22 -25 -20 c-87 -68 -221 -21 -245 86 -5 19 -9 113 -10 208 -1
168 7 220 33 237 21 14 80 8 99 -9 18 -16 21 -16 47 0 33 19 73 22 102 7 13
-8 25 -7 40 0 25 14 137 20 160 9 32 -16 41 4 29 62 -24 118 -28 148 -26 200
2 46 8 62 35 96 17 22 43 46 57 54 19 10 24 18 18 34 -4 11 -8 34 -9 50 -1 17
-7 48 -14 70 -20 73 -10 145 26 183 7 7 13 18 13 25 0 6 10 22 23 35 12 14 15
22 7 18 -13 -6 -13 -5 0 6 9 7 37 50 63 95 47 80 48 83 44 154 -3 66 -2 73 22
95 30 28 39 29 66 8z"/>
<path d="M1671 3576 c-7 -8 -10 -20 -6 -27 4 -6 9 -38 11 -70 l3 -59 -99 -162
c-83 -135 -100 -170 -100 -203 0 -22 7 -51 15 -63 10 -14 15 -40 14 -72 -3
-52 3 -66 20 -55 17 10 13 127 -4 149 -8 11 -15 30 -15 43 0 13 44 95 99 182
l99 158 3 94 c3 80 2 94 -12 97 -9 1 -21 -4 -28 -12z"/>
<path d="M1645 3233 c-74 -124 -76 -129 -71 -178 11 -102 18 -136 30 -132 12
4 12 66 1 129 -6 33 0 48 60 148 l66 110 70 -90 c58 -76 69 -97 69 -129 0 -23
-6 -44 -15 -51 -22 -18 -17 -165 5 -165 12 0 16 16 18 77 2 52 7 80 17 88 9 7
15 29 15 51 0 34 -12 56 -86 154 -48 63 -90 115 -94 115 -4 0 -42 -57 -85
-127z"/>
<path d="M1716 3218 c-66 -105 -66 -107 -66 -174 0 -57 2 -65 18 -62 13 2 18
17 22 68 4 57 34 140 49 140 3 0 19 -18 34 -40 l29 -40 -26 -45 c-26 -44 -34
-107 -17 -134 15 -24 31 -1 31 45 0 31 8 60 26 89 15 26 22 50 18 57 -22 36
-87 118 -95 118 -5 0 -15 -10 -23 -22z"/>
<path d="M1733 3113 c-10 -4 -10 -10 -2 -25 11 -20 12 -20 21 -4 11 20 0 36
-19 29z"/>
<path d="M1594 2897 c-32 -29 -87 -76 -121 -106 l-63 -53 0 -67 c0 -37 12
-126 26 -197 26 -128 26 -131 15 -334 -6 -113 -16 -304 -23 -425 l-11 -220 53
-58 c56 -60 57 -62 47 -157 -2 -21 3 -26 26 -28 l27 -3 -6 73 c-6 71 -8 74
-57 125 l-50 52 7 188 c3 103 11 301 17 438 l12 250 -27 123 c-14 67 -26 144
-26 171 l0 49 111 98 111 98 142 -73 c77 -41 147 -78 154 -84 20 -16 14 -126
-13 -241 -27 -116 -31 -196 -15 -339 6 -51 19 -238 30 -417 l18 -324 -29 -30
c-25 -25 -29 -38 -31 -88 -1 -32 -2 -68 -2 -80 -1 -18 5 -23 24 -23 25 0 25 1
21 78 -3 74 -2 78 23 98 24 19 26 27 25 87 0 37 -6 141 -14 232 -7 91 -21 280
-31 422 l-18 256 27 115 c26 111 36 249 19 272 -4 6 -68 41 -142 79 -74 39
-146 76 -160 83 -14 7 -28 13 -31 13 -3 0 -32 -24 -65 -53z"/>
<path d="M1651 2698 c0 -204 7 -265 30 -259 8 3 36 7 62 9 40 3 55 -1 88 -23
21 -15 39 -32 39 -36 0 -5 7 -9 15 -9 15 0 22 21 55 167 23 106 26 176 8 191
-27 21 -194 102 -211 102 -16 0 -18 -8 -15 -62 l3 -62 70 -34 c39 -19 71 -35
72 -36 5 -4 -31 -116 -37 -116 -4 0 -24 11 -44 25 -42 29 -64 32 -72 10 -7
-17 14 -48 26 -40 4 3 28 -4 51 -15 24 -11 49 -20 56 -20 13 0 39 75 50 142
l6 38 -71 32 c-60 28 -71 37 -75 63 -2 17 -3 31 -2 33 1 2 41 -16 89 -40 l86
-42 0 -41 c0 -22 -9 -77 -20 -123 -11 -46 -20 -92 -20 -103 0 -23 -13 -25 -30
-5 -19 24 -97 49 -133 43 l-34 -5 -7 120 c-3 67 -6 156 -6 200 0 63 -3 78 -15
78 -13 0 -15 -27 -14 -182z"/>
<path d="M1541 2774 l-71 -57 0 -53 c0 -30 12 -108 26 -174 l26 -121 -16 -397
c-8 -218 -17 -408 -18 -422 -2 -20 1 -25 20 -25 l22 0 6 250 c3 138 9 329 12
425 7 167 6 181 -20 300 -39 177 -38 189 16 234 24 20 47 36 50 36 3 0 6 -13
6 -30 0 -21 -8 -36 -30 -52 -37 -27 -37 -35 -5 -179 26 -113 26 -116 20 -444
-4 -181 -11 -364 -15 -405 -8 -65 -7 -77 7 -88 9 -6 20 -9 25 -4 4 4 10 180
13 392 3 212 8 392 10 400 3 9 -8 76 -24 150 l-30 135 30 23 c27 22 29 29 29
87 0 35 -4 66 -9 69 -5 4 -41 -19 -80 -50z"/>
<path d="M1720 2652 c0 -9 4 -21 8 -27 12 -16 73 -46 83 -39 18 11 9 45 -16
56 -14 6 -25 14 -25 17 0 4 -11 8 -25 9 -18 1 -25 -3 -25 -16z"/>
<path d="M1690 2413 c-14 -3 -28 -9 -31 -15 -13 -20 5 -58 37 -80 19 -13 34
-27 34 -31 0 -5 19 -26 43 -48 35 -33 48 -39 77 -37 l35 3 3 57 c3 64 -10 98
-37 98 -10 0 -23 12 -29 26 -7 14 -16 23 -21 19 -5 -3 -12 -1 -16 5 -6 10 -48
11 -95 3z"/>
<path d="M930 2185 c0 -272 9 -295 120 -295 45 0 56 4 81 31 l29 31 0 220 0
219 -36 -3 -36 -3 1 -192 c1 -121 -2 -200 -9 -213 -13 -24 -55 -27 -64 -4 -3
9 -6 105 -6 215 l0 199 -40 0 -40 0 0 -205z"/>
<path d="M1210 2141 l0 -251 74 0 c40 0 87 5 103 11 26 9 31 16 37 56 12 88 7
181 -9 191 -14 7 -13 11 5 27 17 15 20 30 20 90 0 64 -3 74 -26 96 -22 21 -37
24 -115 27 l-89 4 0 -251z m144 163 c19 -19 21 -87 3 -102 -6 -6 -24 -13 -40
-17 l-27 -7 0 71 c0 69 1 71 24 71 14 0 32 -7 40 -16z m11 -205 c10 -10 14
-113 5 -122 -3 -3 -22 -8 -42 -12 l-38 -7 0 82 0 83 32 -7 c18 -3 37 -11 43
-17z"/>
<path d="M2293 2370 c-21 -13 -35 -31 -42 -57 -14 -49 -14 -307 0 -356 25 -90
160 -106 209 -25 18 30 20 51 20 203 0 152 -2 173 -20 203 -33 54 -108 69
-167 32z m95 -62 c8 -8 12 -61 12 -175 0 -150 -1 -163 -19 -173 -25 -13 -27
-13 -45 6 -13 13 -16 42 -16 165 0 85 5 159 10 170 12 21 40 25 58 7z"/>
<path d="M2875 2381 c-11 -5 -29 -19 -40 -31 -18 -20 -20 -39 -23 -204 -3
-176 -3 -182 20 -216 30 -44 79 -59 138 -41 67 20 74 41 78 221 4 186 -5 232
-51 260 -33 20 -87 25 -122 11z m85 -80 c5 -11 10 -85 10 -170 0 -123 -3 -152
-16 -165 -19 -19 -36 -20 -52 -4 -17 17 -17 329 0 346 18 18 46 14 58 -7z"/>
<path d="M3188 2383 l-118 -4 0 -34 c0 -34 1 -35 40 -35 l40 0 0 -210 0 -210
40 0 40 0 0 210 0 210 40 0 c40 0 40 0 40 40 0 22 -1 39 -2 38 -2 -1 -56 -4
-120 -5z"/>
<path d="M3533 2378 c-48 -23 -55 -58 -51 -255 3 -181 3 -183 29 -209 30 -29
90 -41 131 -25 43 16 68 66 68 134 l0 57 -40 0 -39 0 -3 -56 c-3 -64 -23 -88
-52 -65 -23 19 -24 332 -1 351 30 25 50 8 53 -48 l3 -52 41 0 40 0 -4 61 c-4
54 -9 66 -36 90 -25 23 -42 29 -75 28 -23 0 -52 -5 -64 -11z"/>
<path d="M3805 2380 c-30 -11 -46 -34 -56 -77 -14 -63 5 -110 71 -178 33 -33
64 -73 69 -88 14 -36 4 -75 -20 -82 -29 -9 -49 12 -49 51 0 33 -1 34 -41 34
l-42 0 6 -46 c9 -83 63 -125 141 -110 50 9 76 35 87 84 15 69 -3 114 -76 192
-68 73 -84 105 -65 139 21 41 70 19 70 -31 0 -26 3 -28 41 -28 40 0 41 0 34
33 -11 58 -27 88 -56 102 -30 16 -82 19 -114 5z"/>
<path d="M1970 2328 c0 -54 16 -295 26 -385 5 -48 8 -53 30 -53 l25 0 -3 105
-3 105 26 0 c42 0 49 -17 49 -117 l0 -93 43 0 42 0 -6 102 c-6 111 -13 138
-35 138 -20 0 -17 9 9 30 19 16 22 27 22 95 0 72 -2 78 -28 101 -25 21 -38 24
-113 24 l-84 0 0 -52z m138 -30 c7 -7 12 -33 12 -58 0 -51 -13 -70 -46 -70
-21 0 -23 5 -26 70 -3 69 -3 70 23 70 14 0 30 -5 37 -12z"/>
<path d="M2530 2135 l0 -245 80 0 c130 0 160 27 160 145 0 57 -3 69 -26 92
l-25 25 20 22 c16 17 21 35 21 79 0 106 -25 127 -150 127 l-80 0 0 -245z m148
122 c4 -55 -9 -77 -44 -77 -23 0 -24 3 -24 66 l0 65 33 -3 c31 -3 32 -5 35
-51z m0 -159 c16 -16 16 -110 0 -126 -7 -7 -25 -12 -40 -12 l-28 0 0 75 0 75
28 0 c15 0 33 -5 40 -12z"/>
<path d="M3350 2135 l0 -245 40 0 40 0 0 245 0 245 -40 0 -40 0 0 -245z"/>
<path d="M1650 1872 l0 -428 35 -34 c30 -29 35 -40 35 -80 0 -25 -5 -51 -12
-58 -16 -16 13 -47 35 -39 13 5 15 20 10 84 -5 70 -9 81 -37 111 l-31 33 -1
384 -1 384 42 -44 c47 -48 102 -69 141 -55 13 5 24 8 24 7 4 -56 27 -571 26
-592 -1 -24 3 -30 19 -30 16 0 20 6 19 30 -8 199 -37 622 -42 627 -4 4 -21 3
-38 -4 -17 -6 -42 -8 -57 -4 -35 8 -89 56 -112 100 -11 21 -27 36 -37 36 -17
0 -18 -25 -18 -428z"/>
<path d="M3600 2141 l0 -59 36 18 c37 19 57 17 87 -9 20 -17 45 -23 65 -16 9
3 1 21 -27 57 -38 51 -41 52 -85 49 -28 -1 -46 2 -46 8 0 6 -7 11 -15 11 -12
0 -15 -13 -15 -59z"/>
<path d="M1717 2113 c-4 -3 -7 -145 -7 -315 l0 -308 36 -40 c36 -40 37 -42 31
-104 -5 -54 -3 -65 10 -70 26 -10 47 17 34 42 -6 11 -11 43 -11 69 0 42 -5 54
-30 78 l-30 29 0 292 0 292 39 -15 39 -15 7 -202 c4 -110 6 -226 4 -256 -4
-53 -3 -55 21 -55 21 0 25 4 22 25 -1 14 -6 132 -10 262 -4 131 -12 242 -17
247 -10 10 -110 51 -124 51 -4 0 -11 -3 -14 -7z"/>
<path d="M1787 1888 c-2 -7 -1 -22 4 -33 6 -16 8 -14 8 13 1 33 -4 41 -12 20z"/>
</g>
</svg>
